<svg width="8" height="7" viewBox="0 0 8 7" fill="none" xmlns="http://www.w3.org/2000/svg">
<path fill-rule="evenodd" clip-rule="evenodd" d="M-0.000976562 3.4999C-0.000976563 3.36729 0.051702 3.24011 0.14547 3.14635C0.239238 3.05258 0.366415 2.9999 0.499023 2.9999H6.29202L4.14502 0.853899C4.05114 0.760013 3.99839 0.632675 3.99839 0.499899C3.99839 0.367124 4.05114 0.239786 4.14502 0.145899C4.23891 0.0520127 4.36625 -0.000732422 4.49902 -0.000732422C4.6318 -0.000732422 4.75914 0.0520127 4.85302 0.145899L7.85302 3.1459C7.89959 3.19234 7.93653 3.24752 7.96174 3.30827C7.98694 3.36901 7.99992 3.43413 7.99992 3.4999C7.99992 3.56567 7.98694 3.63079 7.96174 3.69153C7.93653 3.75228 7.89959 3.80745 7.85302 3.8539L4.85302 6.8539C4.75914 6.94779 4.6318 7.00053 4.49902 7.00053C4.36625 7.00053 4.23891 6.94779 4.14502 6.8539C4.05114 6.76001 3.99839 6.63268 3.99839 6.4999C3.99839 6.36712 4.05114 6.23979 4.14502 6.1459L6.29202 3.9999H0.499023C0.366415 3.9999 0.239238 3.94722 0.14547 3.85345C0.051702 3.75969 -0.000976563 3.63251 -0.000976562 3.4999Z" fill="#9DA5B1"/>
</svg>
