<svg width="14" height="20" viewBox="0 0 14 20" fill="none" xmlns="http://www.w3.org/2000/svg">
<path d="M1 6.319V13.6C1 15.0322 1.63214 16.4057 2.75736 17.4184C3.88258 18.4311 5.4087 19 7 19C8.5913 19 10.1174 18.4311 11.2426 17.4184C12.3679 16.4057 13 15.0322 13 13.6V4.6C13 3.64522 12.5786 2.72955 11.8284 2.05442C11.0783 1.37928 10.0609 1 9 1C7.93913 1 6.92172 1.37928 6.17157 2.05442C5.42143 2.72955 5 3.64522 5 4.6V12.8638C5 13.1002 5.05173 13.3342 5.15224 13.5526C5.25275 13.771 5.40007 13.9694 5.58579 14.1366C5.7715 14.3037 5.99198 14.4363 6.23463 14.5268C6.47728 14.6172 6.73736 14.6638 7 14.6638V14.6638C7.53043 14.6638 8.03914 14.4742 8.41421 14.1366C8.78929 13.799 9 13.3412 9 12.8638V6.4" stroke="#505D73" stroke-width="2" stroke-linecap="round" stroke-linejoin="round"/>
</svg>
