<svg width="28" height="28" viewBox="0 0 28 28" fill="none" xmlns="http://www.w3.org/2000/svg">
<path d="M28 14C28 21.7 21.7 28 14 28C6.3 28 0 21.7 0 14C0 6.3 6.3 0 14 0C21.7 0 28 6.3 28 14Z" fill="#FDB927"/>
<path d="M3.40002 23.1C6.00002 26.1 9.80002 28 14 28C18.2 28 22 26.1 24.6 23.1C23.7 23.2 20.9 23.5 14 23.5C6.90002 23.6 4.20002 23.3 3.40002 23.1Z" fill="#2E2A25"/>
<path d="M27.7 17.1C27.9 16.1 28 15.1 28 14C28 12.8 27.8 11.6 27.6 10.5C26.2 10.5 21.9 10.4 14.1 10.4C6.3 10.4 1.8 10.5 0.5 10.5C0.2 11.6 0 12.8 0 14C0 15.1 0.1 16.1 0.4 17.2C2.1 17.2 8.6 17.3 14.2 17.3C19.9 17.3 26.2 17.2 27.7 17.1Z" fill="#2E2A25"/>
<path d="M24.5 4.7C21.9 1.8 18.2 0 14 0C9.8 0 6.1 1.8 3.5 4.7C4.5 4.6 7.3 4.3 14 4.3C20.6 4.3 23.5 4.6 24.5 4.7Z" fill="#2E2A25"/>
</svg>
