<svg width="14" height="15" viewBox="0 0 14 15" fill="none" xmlns="http://www.w3.org/2000/svg">
<path d="M9.49691 6.75196C9.53766 6.7926 9.56998 6.84088 9.59204 6.89403C9.61409 6.94718 9.62545 7.00416 9.62545 7.06171C9.62545 7.11925 9.61409 7.17623 9.59204 7.22939C9.56998 7.28254 9.53766 7.33082 9.49691 7.37146L6.87191 9.99646C6.83127 10.0372 6.783 10.0695 6.72984 10.0916C6.67669 10.1136 6.61971 10.125 6.56216 10.125C6.50462 10.125 6.44764 10.1136 6.39448 10.0916C6.34133 10.0695 6.29305 10.0372 6.25241 9.99646L4.93991 8.68396C4.89924 8.64328 4.86697 8.59499 4.84496 8.54184C4.82294 8.4887 4.81161 8.43173 4.81161 8.37421C4.81161 8.31668 4.82294 8.25972 4.84496 8.20657C4.86697 8.15342 4.89924 8.10513 4.93991 8.06446C5.02207 7.98231 5.13349 7.93615 5.24966 7.93615C5.30719 7.93615 5.36415 7.94748 5.4173 7.9695C5.47045 7.99151 5.51874 8.02378 5.55941 8.06446L6.56216 9.06808L8.87741 6.75196C8.91805 6.71121 8.96633 6.67889 9.01949 6.65683C9.07264 6.63478 9.12962 6.62342 9.18716 6.62342C9.24471 6.62342 9.30169 6.63478 9.35484 6.65683C9.408 6.67889 9.45627 6.71121 9.49691 6.75196Z" fill="#9DA5B1"/>
<path d="M3.06216 0.499207C3.1782 0.499207 3.28948 0.5453 3.37152 0.627347C3.45357 0.709394 3.49966 0.820674 3.49966 0.936707V1.37421H10.4997V0.936707C10.4997 0.820674 10.5458 0.709394 10.6278 0.627347C10.7099 0.5453 10.8211 0.499207 10.9372 0.499207C11.0532 0.499207 11.1645 0.5453 11.2465 0.627347C11.3286 0.709394 11.3747 0.820674 11.3747 0.936707V1.37421H12.2497C12.7138 1.37421 13.1589 1.55858 13.4871 1.88677C13.8153 2.21496 13.9997 2.66008 13.9997 3.12421V12.7492C13.9997 13.2133 13.8153 13.6585 13.4871 13.9866C13.1589 14.3148 12.7138 14.4992 12.2497 14.4992H1.74966C1.28554 14.4992 0.840416 14.3148 0.512227 13.9866C0.184039 13.6585 -0.000335693 13.2133 -0.000335693 12.7492V3.12421C-0.000335693 2.66008 0.184039 2.21496 0.512227 1.88677C0.840416 1.55858 1.28554 1.37421 1.74966 1.37421H2.62466V0.936707C2.62466 0.820674 2.67076 0.709394 2.75281 0.627347C2.83485 0.5453 2.94613 0.499207 3.06216 0.499207ZM0.874664 3.99921V12.7492C0.874664 12.9813 0.966852 13.2038 1.13095 13.3679C1.29504 13.532 1.5176 13.6242 1.74966 13.6242H12.2497C12.4817 13.6242 12.7043 13.532 12.8684 13.3679C13.0325 13.2038 13.1247 12.9813 13.1247 12.7492V3.99921H0.874664Z" fill="#9DA5B1"/>
</svg>
