<svg width="10" height="11" viewBox="0 0 10 11" fill="none" xmlns="http://www.w3.org/2000/svg">
<path d="M6.52591 5.87769C6.52591 6.72046 5.84271 7.40366 4.99994 7.40366C4.15717 7.40366 3.47396 6.72046 3.47396 5.87769C3.47396 5.03492 4.15717 4.35171 4.99994 4.35171C5.84271 4.35171 6.52591 5.03492 6.52591 5.87769Z" fill="white"/>
<path d="M1.3376 3.13094C0.663383 3.13094 0.116821 3.6775 0.116821 4.35171V8.01405C0.116821 8.68827 0.663383 9.23483 1.3376 9.23483H8.66228C9.33649 9.23483 9.88305 8.68827 9.88305 8.01405V4.35171C9.88305 3.6775 9.33649 3.13094 8.66228 3.13094H7.94716C7.62339 3.13094 7.31288 3.00232 7.08394 2.77338L6.57828 2.26771C6.34933 2.03877 6.03882 1.91016 5.71505 1.91016H4.28482C3.96105 1.91016 3.65054 2.03877 3.4216 2.26771L2.91594 2.77338C2.687 3.00232 2.37649 3.13094 2.05272 3.13094H1.3376ZM1.6428 4.35171C1.47424 4.35171 1.3376 4.21507 1.3376 4.04652C1.3376 3.87797 1.47424 3.74132 1.6428 3.74132C1.81135 3.74132 1.94799 3.87797 1.94799 4.04652C1.94799 4.21507 1.81135 4.35171 1.6428 4.35171ZM7.1363 5.87769C7.1363 7.05757 6.17982 8.01405 4.99994 8.01405C3.82006 8.01405 2.86357 7.05757 2.86357 5.87769C2.86357 4.69781 3.82006 3.74132 4.99994 3.74132C6.17982 3.74132 7.1363 4.69781 7.1363 5.87769Z" fill="white"/>
</svg>
