<svg width="18" height="14" viewBox="0 0 18 14" fill="none" xmlns="http://www.w3.org/2000/svg">
<path d="M0 2.73247C0 1.48893 1.00736 0.480835 2.25 0.480835H15.75C16.9926 0.480835 18 1.48893 18 2.73247V3.85828H0V2.73247Z" fill="#9DA5B1"/>
<path d="M0 6.10992V11.739C0 12.9825 1.00736 13.9906 2.25 13.9906H15.75C16.9926 13.9906 18 12.9825 18 11.739V6.10992H0ZM3.375 8.36155H4.5C5.12132 8.36155 5.625 8.8656 5.625 9.48737V10.6132C5.625 11.235 5.12132 11.739 4.5 11.739H3.375C2.75368 11.739 2.25 11.235 2.25 10.6132V9.48737C2.25 8.8656 2.75368 8.36155 3.375 8.36155Z" fill="#9DA5B1"/>
</svg>
