<svg width="14" height="14" viewBox="0 0 14 14"  xmlns="http://www.w3.org/2000/svg">
<path fill-rule="evenodd" clip-rule="evenodd" d="M0 0H0.875V13.125H14V14H0V0ZM8.75 3.0625C8.75 2.82088 8.94588 2.625 9.1875 2.625H12.6875C12.9291 2.625 13.125 2.82088 13.125 3.0625V6.5625C13.125 6.80412 12.9291 7 12.6875 7C12.4459 7 12.25 6.80412 12.25 6.5625V4.28812L9.08861 8.15204C9.01033 8.24771 8.89525 8.3058 8.77179 8.31196C8.64834 8.31811 8.52804 8.27176 8.44064 8.18436L6.17768 5.9214L2.97882 10.3198C2.83671 10.5152 2.56309 10.5584 2.36768 10.4163C2.17226 10.2742 2.12906 10.0006 2.27118 9.80517L5.77118 4.99267C5.84644 4.8892 5.96322 4.82385 6.09078 4.81384C6.21834 4.80383 6.34388 4.85017 6.43436 4.94064L8.71752 7.2238L11.7643 3.5H9.1875C8.94588 3.5 8.75 3.30412 8.75 3.0625Z" />
</svg>
