<svg width="18" height="18" viewBox="0 0 18 18" fill="none" xmlns="http://www.w3.org/2000/svg">
<path d="M0 2.77409C0 1.53055 1.00736 0.522461 2.25 0.522461H15.75C16.9926 0.522461 18 1.53055 18 2.77409V11.7806C18 13.0242 16.9926 14.0323 15.75 14.0323H4.96599C4.66762 14.0323 4.38147 14.1509 4.1705 14.362L0.960247 17.5746C0.605891 17.9292 0 17.678 0 17.1765V2.77409ZM5.625 7.27736C5.625 6.65559 5.12132 6.15154 4.5 6.15154C3.87868 6.15154 3.375 6.65559 3.375 7.27736C3.375 7.89913 3.87868 8.40318 4.5 8.40318C5.12132 8.40318 5.625 7.89913 5.625 7.27736ZM10.125 7.27736C10.125 6.65559 9.62132 6.15154 9 6.15154C8.37868 6.15154 7.875 6.65559 7.875 7.27736C7.875 7.89913 8.37868 8.40318 9 8.40318C9.62132 8.40318 10.125 7.89913 10.125 7.27736ZM13.5 8.40318C14.1213 8.40318 14.625 7.89913 14.625 7.27736C14.625 6.65559 14.1213 6.15154 13.5 6.15154C12.8787 6.15154 12.375 6.65559 12.375 7.27736C12.375 7.89913 12.8787 8.40318 13.5 8.40318Z" fill="#9DA5B1"/>
</svg>
