<svg width="24" height="18" viewBox="0 0 24 18" fill="none" xmlns="http://www.w3.org/2000/svg">
<path fill-rule="evenodd" clip-rule="evenodd" d="M15 15.75C15 16.1642 14.6642 16.5 14.25 16.5L2.25 16.5C1.83579 16.5 1.5 16.1642 1.5 15.75L1.5 2.25C1.5 1.83579 1.83579 1.5 2.25 1.5L14.25 1.5C14.6642 1.5 15 1.83579 15 2.25L15 5.25C15 5.66421 15.3358 6 15.75 6C16.1642 6 16.5 5.66421 16.5 5.25L16.5 2.25C16.5 1.00736 15.4926 -4.40331e-08 14.25 -9.83506e-08L2.25 -6.22887e-07C1.00736 -6.77205e-07 7.42772e-07 1.00736 6.88454e-07 2.25L9.83506e-08 15.75C4.4033e-08 16.9926 1.00736 18 2.25 18L14.25 18C15.4926 18 16.5 16.9926 16.5 15.75L16.5 12.75C16.5 12.3358 16.1642 12 15.75 12C15.3358 12 15 12.3358 15 12.75L15 15.75Z" fill="#3B4B64"/>
<path fill-rule="evenodd" clip-rule="evenodd" d="M23.7803 9.53033C24.0732 9.23744 24.0732 8.76256 23.7803 8.46967L19.2803 3.96967C18.9874 3.67678 18.5126 3.67678 18.2197 3.96967C17.9268 4.26256 17.9268 4.73744 18.2197 5.03033L21.4393 8.25L8.25 8.25C7.83579 8.25 7.5 8.58579 7.5 9C7.5 9.41421 7.83579 9.75 8.25 9.75L21.4393 9.75L18.2197 12.9697C17.9268 13.2626 17.9268 13.7374 18.2197 14.0303C18.5126 14.3232 18.9874 14.3232 19.2803 14.0303L23.7803 9.53033Z" fill="#3B4B64"/>
</svg>
