<svg width="16" height="17" viewBox="0 0 16 17" xmlns="http://www.w3.org/2000/svg">
    <path d="M6.3125 15.5071V11.5607C6.3125 11.2852 6.59375 11.0038 6.875 11.0038H9.125C9.40625 11.0038 9.6875 11.2852 9.6875 11.5667V15.5071C9.6875 15.8179 9.93934 16.07 10.25 16.07H14.75C15.0607 16.07 15.3125 15.8179 15.3125 15.5071V7.62634C15.3125 7.47705 15.2532 7.33387 15.1477 7.2283L13.625 5.70445V1.99726C13.625 1.68637 13.3732 1.43435 13.0625 1.43435H11.9375C11.6268 1.43435 11.375 1.68637 11.375 1.99726V3.45282L8.39775 0.473405C8.17808 0.253575 7.82192 0.253575 7.60225 0.473405L0.852252 7.2283C0.746763 7.33387 0.6875 7.47705 0.6875 7.62634V15.5071C0.6875 15.8179 0.93934 16.07 1.25 16.07H5.75C6.06066 16.07 6.3125 15.8179 6.3125 15.5071Z" />
</svg>