<svg width="16" height="16" viewBox="0 0 16 16" fill="none" xmlns="http://www.w3.org/2000/svg">
<rect width="16" height="16" fill="white"/>
<path d="M8 14C11.3137 14 14 11.3137 14 8C14 4.68629 11.3137 2 8 2C4.68629 2 2 4.68629 2 8C2 11.3137 4.68629 14 8 14Z" stroke="#DC3545"/>
<path d="M7.73334 4.79999H8.26667L8 8.66665L7.73334 4.79999Z" stroke="#DC3545" stroke-linejoin="round"/>
<path d="M8.00001 11.7333C8.44184 11.7333 8.80001 11.3751 8.80001 10.9333C8.80001 10.4915 8.44184 10.1333 8.00001 10.1333C7.55818 10.1333 7.20001 10.4915 7.20001 10.9333C7.20001 11.3751 7.55818 11.7333 8.00001 11.7333Z" fill="#E45353"/>
</svg>
