<svg width="19" height="19" viewBox="0 0 19 19" fill="none" xmlns="http://www.w3.org/2000/svg">
<path d="M10.7457 0.516595C10.0569 -0.172198 8.94069 -0.172198 8.25194 0.516595L0.516563 8.25364C-0.172187 8.94243 -0.172187 10.0576 0.516563 10.7452L8.25431 18.4834C8.94306 19.1722 10.0581 19.1722 10.7457 18.4834L18.4834 10.7452C19.1722 10.0564 19.1722 8.94125 18.4834 8.25364L10.7457 0.516595ZM9.49881 4.7503C10.1341 4.7503 10.6317 5.29896 10.5676 5.93193L10.1519 10.0968C10.138 10.2604 10.0631 10.4128 9.94217 10.5239C9.82123 10.6349 9.66301 10.6965 9.49881 10.6965C9.33461 10.6965 9.1764 10.6349 9.05545 10.5239C8.93451 10.4128 8.85965 10.2604 8.84569 10.0968L8.43006 5.93193C8.41514 5.78258 8.43166 5.63175 8.47857 5.48917C8.52547 5.34658 8.60172 5.21541 8.70241 5.10409C8.80309 4.99277 8.92598 4.90378 9.06314 4.84284C9.20031 4.78191 9.34872 4.75038 9.49881 4.7503ZM9.50119 11.8757C9.81613 11.8757 10.1182 12.0009 10.3409 12.2236C10.5636 12.4463 10.6887 12.7484 10.6887 13.0633C10.6887 13.3783 10.5636 13.6803 10.3409 13.9031C10.1182 14.1258 9.81613 14.2509 9.50119 14.2509C9.18624 14.2509 8.8842 14.1258 8.6615 13.9031C8.4388 13.6803 8.31369 13.3783 8.31369 13.0633C8.31369 12.7484 8.4388 12.4463 8.6615 12.2236C8.8842 12.0009 9.18624 11.8757 9.50119 11.8757Z" fill="#2EB85C"/>
</svg>
