<svg width="122" height="26" viewBox="0 0 122 26" fill="none" xmlns="http://www.w3.org/2000/svg">
<path d="M58.4738 2.85341C58.4738 2.88194 58.4738 2.939 58.4738 2.96753C58.4738 2.99606 58.4738 3.02459 58.4738 3.05312C58.4738 3.08165 58.4738 3.08165 58.4452 3.11018C58.4452 3.13871 58.4167 3.13871 58.3881 3.16724C58.3596 3.19577 58.3025 3.22431 58.2454 3.28137C58.1883 3.33843 58.1026 3.36696 58.017 3.39549C57.9313 3.42402 57.8456 3.45255 57.7314 3.48108C57.6172 3.50961 57.5316 3.50961 57.4174 3.50961C57.189 3.50961 56.9891 3.48108 56.8178 3.39549C56.6465 3.3099 56.5037 3.22431 56.3895 3.08165C56.2753 2.939 56.1897 2.76782 56.1326 2.5681C56.0755 2.36839 56.0469 2.11161 56.0469 1.85484C56.0469 1.541 56.0755 1.28422 56.1611 1.05598C56.2468 0.827733 56.3324 0.65655 56.4752 0.513897C56.618 0.371244 56.7607 0.257121 56.932 0.20006C57.1033 0.142999 57.3032 0.0859375 57.503 0.0859375C57.5887 0.0859375 57.7029 0.0859371 57.7885 0.114468C57.8742 0.142998 57.9598 0.171529 58.0455 0.20006C58.1312 0.22859 58.1883 0.257121 58.2454 0.314182C58.3025 0.342713 58.3596 0.399774 58.3881 0.428305C58.4167 0.456835 58.4452 0.485366 58.4452 0.485366C58.4452 0.513897 58.4738 0.513896 58.4738 0.542427C58.4738 0.570958 58.4738 0.599489 58.4738 0.628019C58.4738 0.65655 58.4738 0.68508 58.4738 0.742142C58.4738 0.827733 58.4738 0.884795 58.4452 0.941856C58.4167 0.970387 58.3881 0.998917 58.3596 0.998917C58.331 0.998917 58.2739 0.970387 58.2454 0.941856C58.1883 0.913325 58.1312 0.856264 58.0741 0.827733C58.017 0.770672 57.9313 0.742141 57.8171 0.713611C57.7314 0.68508 57.5887 0.65655 57.4745 0.65655C57.189 0.65655 56.9891 0.770672 56.8464 0.970386C56.7036 1.1701 56.618 1.48394 56.618 1.88337C56.618 2.08308 56.6465 2.25426 56.6751 2.42545C56.7036 2.5681 56.7607 2.71075 56.8464 2.79635C56.932 2.91047 57.0177 2.96753 57.1319 3.02459C57.2461 3.08165 57.3603 3.11018 57.503 3.11018C57.6458 3.11018 57.76 3.08165 57.8456 3.05312C57.9313 3.02459 58.0455 2.96753 58.1026 2.91047C58.1883 2.85341 58.2454 2.82488 58.2739 2.76781C58.331 2.73928 58.3596 2.71075 58.3881 2.71075C58.4167 2.71075 58.4167 2.71075 58.4167 2.71075C58.4167 2.71075 58.4452 2.73928 58.4452 2.76781C58.4452 2.79635 58.4452 2.82488 58.4738 2.85341C58.4738 2.76782 58.4738 2.79635 58.4738 2.85341Z" fill="white"/>
<path d="M61.9002 1.62582C61.9002 1.71142 61.8716 1.76848 61.8431 1.82554C61.786 1.85407 61.7574 1.8826 61.7003 1.8826H59.6447C59.6447 2.05378 59.6732 2.22497 59.7018 2.33909C59.7303 2.48174 59.7874 2.59587 59.8731 2.70999C59.9587 2.82411 60.0729 2.88117 60.1871 2.93823C60.3299 2.99529 60.4726 3.02383 60.6725 3.02383C60.8153 3.02383 60.958 3.02383 61.0722 2.99529C61.1864 2.96676 61.3006 2.93823 61.3863 2.9097C61.4719 2.88117 61.529 2.85264 61.5861 2.82411C61.6432 2.79558 61.6718 2.79558 61.7003 2.79558C61.7289 2.79558 61.7289 2.79558 61.7574 2.79558L61.786 2.82411C61.786 2.85264 61.786 2.85264 61.8145 2.88117C61.8145 2.9097 61.8145 2.93823 61.8145 2.99529C61.8145 3.02383 61.8145 3.05236 61.8145 3.08089C61.8145 3.10942 61.8145 3.10942 61.8145 3.13795C61.8145 3.16648 61.8145 3.16648 61.786 3.19501C61.7574 3.22354 61.7574 3.22354 61.7574 3.22354C61.7574 3.22354 61.7003 3.25207 61.6432 3.2806C61.5861 3.30913 61.5005 3.33766 61.3863 3.36619C61.2721 3.39472 61.1579 3.42325 61.0437 3.45178C60.9009 3.48032 60.7582 3.48031 60.6154 3.48031C60.3584 3.48031 60.13 3.45178 59.9302 3.36619C59.7303 3.2806 59.559 3.19501 59.4448 3.05236C59.3021 2.9097 59.2164 2.73852 59.1593 2.51027C59.1022 2.31056 59.0451 2.05378 59.0451 1.76848C59.0451 1.5117 59.0737 1.25493 59.1593 1.05521C59.2164 0.826967 59.3306 0.655784 59.4734 0.513131C59.6161 0.370478 59.7589 0.256355 59.9587 0.170763C60.1586 0.0851711 60.3584 0.0566406 60.5869 0.0566406C60.8438 0.0566406 61.0437 0.0851711 61.215 0.170763C61.3863 0.256355 61.529 0.341947 61.6432 0.4846C61.7574 0.627253 61.8431 0.769906 61.9002 0.94109C61.9573 1.11227 61.9859 1.31199 61.9859 1.5117V1.62582H61.9002ZM61.3292 1.45464C61.3292 1.1408 61.2721 0.912559 61.1293 0.741375C60.9866 0.570192 60.7867 0.4846 60.5012 0.4846C60.3584 0.4846 60.2442 0.51313 60.13 0.570192C60.0158 0.627253 59.9302 0.684314 59.8731 0.769906C59.7874 0.855498 59.7303 0.969621 59.7018 1.08374C59.6732 1.19787 59.6447 1.31199 59.6447 1.45464H61.3292V1.45464Z" fill="white"/>
<path d="M65.6691 1.71163C65.6691 1.99693 65.6406 2.22518 65.5835 2.45342C65.5264 2.68167 65.4407 2.85285 65.3265 2.99551C65.2123 3.13816 65.0695 3.25228 64.8982 3.33787C64.7269 3.42346 64.5271 3.45199 64.3272 3.45199C64.2416 3.45199 64.1559 3.452 64.0703 3.42346C63.9846 3.39493 63.9275 3.3664 63.8419 3.33787C63.7562 3.30934 63.6991 3.25228 63.6134 3.19522C63.5278 3.13816 63.4707 3.05257 63.385 2.99551V4.56469C63.385 4.59322 63.385 4.59322 63.385 4.62175C63.385 4.65028 63.3565 4.65028 63.3279 4.65028C63.2994 4.65028 63.2708 4.67881 63.2423 4.67881C63.2137 4.67881 63.1566 4.67881 63.0995 4.67881C63.0424 4.67881 62.9853 4.67881 62.9568 4.67881C62.9282 4.67881 62.8997 4.67881 62.8711 4.65028C62.8426 4.65028 62.8426 4.62175 62.814 4.62175C62.7855 4.62175 62.814 4.59322 62.814 4.56469V0.199504C62.814 0.170974 62.814 0.170973 62.814 0.142443L62.8426 0.113912C62.8711 0.113912 62.8997 0.0853818 62.9282 0.0853818C62.9568 0.0853818 63.0139 0.0853818 63.0424 0.0853818C63.0995 0.0853818 63.1281 0.0853818 63.1566 0.0853818C63.1852 0.0853818 63.2137 0.0853813 63.2423 0.113912C63.2708 0.113912 63.2708 0.142443 63.2994 0.142443C63.2994 0.142443 63.2994 0.170974 63.2994 0.199504V0.598933C63.385 0.513341 63.4992 0.427749 63.5849 0.342157C63.6706 0.256565 63.7562 0.199504 63.8419 0.170973C63.9275 0.113912 64.0132 0.0853817 64.1274 0.056851C64.213 0.0283204 64.3272 0.0283203 64.4129 0.0283203C64.6413 0.0283203 64.8411 0.0853816 64.9839 0.170973C65.1552 0.256565 65.2694 0.370688 65.3836 0.541871C65.4978 0.684524 65.5549 0.884239 65.612 1.08395C65.6406 1.25514 65.6691 1.48338 65.6691 1.71163ZM65.0695 1.76869C65.0695 1.5975 65.0695 1.45485 65.041 1.3122C65.0124 1.16955 64.9839 1.02689 64.9268 0.91277C64.8697 0.798647 64.784 0.713055 64.6984 0.627463C64.5842 0.570402 64.47 0.513341 64.3272 0.513341C64.2416 0.513341 64.1845 0.513341 64.0988 0.541871C64.0132 0.570402 63.9561 0.598933 63.8704 0.655994C63.7848 0.713055 63.7277 0.770116 63.642 0.855708C63.5563 0.9413 63.4707 1.02689 63.385 1.14101V2.39636C63.5563 2.59608 63.6991 2.73873 63.8419 2.85285C63.9846 2.96697 64.1274 2.99551 64.2987 2.99551C64.4414 2.99551 64.5556 2.96697 64.6698 2.88138C64.784 2.82432 64.8697 2.7102 64.9268 2.59608C64.9839 2.48195 65.041 2.3393 65.0695 2.19665C65.0695 2.05399 65.0695 1.91134 65.0695 1.76869Z" fill="white"/>
<path d="M69.0947 2.42489C69.0947 2.59608 69.0661 2.73873 69.009 2.85285C68.9519 2.99551 68.8663 3.0811 68.7235 3.16669C68.6093 3.25228 68.438 3.30934 68.2667 3.3664C68.0954 3.42346 67.867 3.42346 67.6386 3.42346C67.5529 3.42346 67.4958 3.42346 67.4102 3.42346C67.3245 3.42346 67.2674 3.42346 67.2103 3.42346C67.1532 3.42346 67.0676 3.42346 67.0105 3.42346C66.9534 3.42346 66.8677 3.42346 66.8106 3.39493C66.725 3.39493 66.6393 3.3664 66.6108 3.30934C66.5536 3.25228 66.5536 3.19522 66.5536 3.0811V0.370688C66.5536 0.285096 66.5822 0.199504 66.6108 0.142443C66.6679 0.0853814 66.725 0.056851 66.8106 0.056851C66.8677 0.056851 66.9248 0.0568509 67.0105 0.0283203C67.0676 0.0283203 67.1532 0.0283203 67.2103 0.0283203C67.296 0.0283203 67.3531 0.0283203 67.4387 0.0283203C67.5244 0.0283203 67.5815 0.0283203 67.6671 0.0283203C67.8955 0.0283203 68.0954 0.0568511 68.2667 0.0853818C68.438 0.113912 68.5808 0.170973 68.6664 0.256565C68.7806 0.342157 68.8663 0.427749 68.8948 0.513341C68.9519 0.627464 68.9805 0.741586 68.9805 0.884239C68.9805 1.05542 68.9234 1.19808 68.8377 1.34073C68.7521 1.45485 68.6093 1.56897 68.4095 1.5975C68.6379 1.65457 68.8092 1.74016 68.9234 1.88281C69.0376 2.02546 69.0947 2.19665 69.0947 2.42489ZM68.4095 0.969831C68.4095 0.884239 68.4095 0.827178 68.3809 0.770117C68.3524 0.713055 68.2953 0.655994 68.2382 0.627463C68.1811 0.598933 68.0954 0.541871 67.9812 0.541871C67.867 0.513341 67.7528 0.513341 67.61 0.513341C67.4958 0.513341 67.4102 0.513341 67.3245 0.513341C67.2389 0.513341 67.1532 0.513341 67.0961 0.541871V1.51191H67.6957C67.9241 1.51191 68.1239 1.45485 68.2382 1.36926C68.3524 1.25514 68.4095 1.14101 68.4095 0.969831ZM68.5237 2.42489C68.5237 2.3393 68.4951 2.25371 68.4666 2.16812C68.438 2.11106 68.3809 2.02546 68.3238 1.99693C68.2667 1.93987 68.1525 1.91134 68.0383 1.88281C67.9241 1.85428 67.8099 1.85428 67.6386 1.85428H67.0676V2.96697C67.1247 2.96697 67.1532 2.96697 67.2103 2.99551C67.2674 2.99551 67.296 2.99551 67.3531 2.99551C67.4102 2.99551 67.4387 2.99551 67.4958 2.99551C67.5529 2.99551 67.5815 2.99551 67.6386 2.99551C67.7813 2.99551 67.9241 2.9955 68.0383 2.96697C68.1525 2.93844 68.2382 2.90991 68.2953 2.85285C68.3524 2.79579 68.4095 2.73873 68.438 2.65314C68.4951 2.59608 68.5237 2.51048 68.5237 2.42489Z" fill="white"/>
<path d="M72.7495 3.30934C72.7495 3.33787 72.7495 3.33787 72.7495 3.3664C72.7495 3.39493 72.721 3.39493 72.6924 3.39493C72.6639 3.39493 72.6353 3.42346 72.6068 3.42346C72.5782 3.42346 72.5211 3.42346 72.464 3.42346C72.4069 3.42346 72.3498 3.42346 72.3213 3.42346C72.2927 3.42346 72.2642 3.42346 72.2356 3.39493C72.2071 3.39493 72.2071 3.3664 72.1785 3.3664C72.15 3.3664 72.1785 3.33787 72.1785 3.30934V1.51191C72.1785 1.42632 72.1785 1.34073 72.1785 1.22661C72.1785 1.14101 72.1785 1.02689 72.2071 0.9413C72.15 1.02689 72.0929 1.11248 72.0358 1.22661C71.9787 1.3122 71.9216 1.39779 71.8359 1.48338L70.494 3.30934C70.4655 3.33787 70.4655 3.33787 70.4369 3.3664C70.4084 3.39493 70.4084 3.39493 70.3798 3.39493C70.3513 3.39493 70.3227 3.39493 70.2942 3.42346C70.2656 3.42346 70.2371 3.42346 70.18 3.42346C70.1228 3.42346 70.0943 3.42346 70.0657 3.42346C70.0372 3.42346 70.0086 3.42346 69.9801 3.39493C69.9515 3.39493 69.9515 3.3664 69.9515 3.3664C69.9515 3.3664 69.9515 3.33787 69.9515 3.30934V0.170973C69.9515 0.142443 69.9515 0.142443 69.9515 0.113912C69.9515 0.0853813 69.9801 0.0853818 70.0086 0.0853818C70.0372 0.0853818 70.0657 0.056851 70.0943 0.056851C70.1228 0.056851 70.1799 0.056851 70.237 0.056851C70.3513 0.056851 70.4369 0.0568511 70.4655 0.0853818C70.494 0.113912 70.5226 0.142443 70.5226 0.170973V1.99693C70.5226 2.08252 70.5226 2.16812 70.5226 2.25371C70.5226 2.3393 70.5226 2.42489 70.494 2.51048C70.5511 2.42489 70.6082 2.3393 70.6653 2.25371C70.7224 2.16812 70.7795 2.08252 70.8366 1.99693L72.1785 0.142443C72.1785 0.113912 72.2071 0.113912 72.2356 0.0853818C72.2642 0.0853818 72.2642 0.056851 72.2927 0.056851C72.3213 0.056851 72.3498 0.0568509 72.3784 0.0283203C72.4069 0.0283203 72.4355 0.0283203 72.4926 0.0283203C72.5497 0.0283203 72.5782 0.0283203 72.6068 0.0283203C72.6353 0.0283203 72.6639 0.0283204 72.6924 0.056851C72.721 0.056851 72.721 0.0853818 72.721 0.0853818C72.721 0.0853818 72.721 0.113912 72.721 0.142443V3.30934H72.7495Z" fill="white"/>
<path d="M76.061 2.85341C76.061 2.88194 76.061 2.939 76.061 2.96753C76.061 2.99606 76.061 3.02459 76.061 3.05312C76.061 3.08165 76.061 3.08165 76.0324 3.11018C76.0324 3.13871 76.0039 3.13871 75.9753 3.16724C75.9468 3.19577 75.8897 3.22431 75.8326 3.28137C75.7755 3.33843 75.6898 3.36696 75.6042 3.39549C75.5185 3.42402 75.4329 3.45255 75.3187 3.48108C75.2045 3.50961 75.1188 3.50961 75.0046 3.50961C74.7762 3.50961 74.5763 3.48108 74.405 3.39549C74.2337 3.3099 74.091 3.22431 73.9768 3.08165C73.8626 2.939 73.7769 2.76782 73.7198 2.5681C73.6627 2.36839 73.6342 2.11161 73.6342 1.85484C73.6342 1.541 73.6627 1.28422 73.7484 1.05598C73.834 0.827733 73.9197 0.65655 74.0624 0.513897C74.2052 0.371244 74.3479 0.257121 74.5192 0.20006C74.6905 0.142999 74.8904 0.0859375 75.0903 0.0859375C75.1759 0.0859375 75.2901 0.0859371 75.3758 0.114468C75.4614 0.142998 75.5471 0.171529 75.6327 0.20006C75.7184 0.22859 75.7755 0.257121 75.8326 0.314182C75.8897 0.342713 75.9468 0.399774 75.9753 0.428305C76.0039 0.456835 76.0324 0.485366 76.0324 0.485366C76.0324 0.513897 76.061 0.513896 76.061 0.542427C76.061 0.570958 76.061 0.599489 76.061 0.628019C76.061 0.65655 76.061 0.68508 76.061 0.742142C76.061 0.827733 76.061 0.884795 76.0324 0.941856C76.0039 0.970387 75.9753 0.998917 75.9468 0.998917C75.9182 0.998917 75.8611 0.970387 75.8326 0.941856C75.7755 0.913325 75.7184 0.856264 75.6613 0.827733C75.6042 0.770672 75.5185 0.742141 75.4043 0.713611C75.3187 0.68508 75.1759 0.65655 75.0617 0.65655C74.7762 0.65655 74.5763 0.770672 74.4336 0.970386C74.2908 1.1701 74.2052 1.48394 74.2052 1.88337C74.2052 2.08308 74.2337 2.25426 74.2623 2.42545C74.2908 2.5681 74.3479 2.71075 74.4336 2.79635C74.5192 2.91047 74.6049 2.96753 74.7191 3.02459C74.8333 3.08165 74.9475 3.11018 75.0903 3.11018C75.233 3.11018 75.3472 3.08165 75.4329 3.05312C75.5185 3.02459 75.6327 2.96753 75.6898 2.91047C75.7755 2.85341 75.8326 2.82488 75.8611 2.76781C75.9182 2.73928 75.9468 2.71075 75.9753 2.71075C76.0039 2.71075 76.0039 2.71075 76.0039 2.71075C76.0039 2.71075 76.0324 2.73928 76.0324 2.76781C76.0324 2.79635 76.0324 2.82488 76.061 2.85341C76.061 2.76782 76.061 2.79635 76.061 2.85341Z" fill="white"/>
<path d="M78.4879 4.45112C78.4879 4.47965 78.4879 4.47965 78.4879 4.47965L78.4593 4.50818C78.4593 4.50818 78.4022 4.50818 78.3737 4.53671C78.3451 4.53671 78.3166 4.53671 78.2595 4.53671C78.2024 4.53671 78.1738 4.53671 78.1453 4.53671C78.1167 4.53671 78.0882 4.53671 78.0596 4.50818C78.0311 4.47965 78.0311 4.47965 78.0311 4.47965V4.45112V3.05312C78.0311 2.99606 78.0311 2.96753 78.0596 2.939C78.0882 2.91047 78.1167 2.91047 78.1738 2.91047H78.4022C78.4879 2.79635 78.5735 2.68222 78.6306 2.53957C78.7163 2.39692 78.7734 2.22573 78.8305 2.02602C78.8876 1.82631 78.9447 1.56953 79.0018 1.28422C79.0589 0.998917 79.116 0.656549 79.1446 0.257121C79.1446 0.22859 79.1446 0.20006 79.1731 0.171529C79.1731 0.142999 79.2016 0.114468 79.2016 0.114468C79.2302 0.0859371 79.2302 0.0859375 79.2588 0.0859375C79.2873 0.0859375 79.3159 0.0859375 79.3444 0.0859375H81.086C81.1431 0.0859375 81.1717 0.114468 81.2288 0.142998C81.2573 0.171529 81.2859 0.22859 81.2859 0.285652V2.91047H81.7141C81.7712 2.91047 81.7998 2.91047 81.8283 2.939C81.8569 2.96753 81.8569 2.99606 81.8569 3.05312V4.45112C81.8569 4.47965 81.8569 4.47965 81.8569 4.47965L81.8283 4.50818C81.7998 4.50818 81.7712 4.50818 81.7427 4.53671C81.7141 4.53671 81.6856 4.53671 81.6285 4.53671C81.5714 4.53671 81.5428 4.53671 81.5143 4.53671C81.4857 4.53671 81.4572 4.53671 81.4286 4.50818C81.4001 4.50818 81.4001 4.47965 81.4001 4.47965V4.45112V3.39549H78.5735V4.45112H78.4879ZM80.6292 0.570958H79.6299C79.5728 0.941856 79.5443 1.25569 79.4872 1.541C79.4301 1.79777 79.373 2.02602 79.3159 2.1972C79.2588 2.36839 79.2017 2.51104 79.116 2.62516C79.0589 2.73928 78.9732 2.82488 78.9161 2.91047H80.6292V0.570958Z" fill="white"/>
<path d="M84.9975 3.30969C84.9975 3.33822 84.9975 3.33822 84.9975 3.36675C84.9975 3.36675 84.9689 3.39528 84.9404 3.39528C84.9118 3.39528 84.8833 3.42381 84.8547 3.42381C84.8262 3.42381 84.7691 3.42381 84.712 3.42381C84.6549 3.42381 84.5978 3.42381 84.5692 3.42381C84.5407 3.42381 84.5121 3.42381 84.4835 3.39528C84.455 3.39528 84.455 3.36675 84.4265 3.36675C84.4265 3.36675 84.4265 3.33822 84.4265 3.30969V0.570748H83.5699C83.5414 0.941646 83.4843 1.25548 83.4272 1.56932C83.3701 1.85463 83.313 2.1114 83.2559 2.31112C83.1988 2.51083 83.1131 2.71055 83.0275 2.8532C82.9418 2.99585 82.8561 3.10997 82.7705 3.19556C82.6848 3.28116 82.5706 3.33822 82.4564 3.39528C82.3422 3.42381 82.228 3.45234 82.0853 3.45234C82.0567 3.45234 82.0567 3.45234 82.0282 3.45234C81.9996 3.45234 81.9996 3.42381 81.9996 3.42381C81.9996 3.42381 81.9711 3.36675 81.9711 3.33822C81.9711 3.30969 81.9711 3.25263 81.9711 3.19556C81.9711 3.1385 81.9711 3.08144 81.9711 3.05291C81.9711 3.02438 81.9711 2.99585 81.9996 2.96732C82.0282 2.93879 82.0282 2.93879 82.0282 2.93879C82.0282 2.93879 82.0567 2.93879 82.0853 2.93879C82.1709 2.93879 82.228 2.91026 82.3137 2.88173C82.3708 2.8532 82.4564 2.79614 82.5135 2.71055C82.5706 2.62495 82.6277 2.51083 82.6848 2.39671C82.7419 2.25405 82.799 2.1114 82.8276 1.91169C82.8847 1.71197 82.9132 1.48373 82.9418 1.22695C82.9703 0.970177 83.0274 0.65634 83.056 0.313972C83.056 0.256911 83.0846 0.19985 83.1131 0.171319C83.1417 0.142789 83.1702 0.114258 83.2273 0.114258H84.8262C84.8833 0.114258 84.9118 0.142789 84.9689 0.171319C84.9975 0.19985 85.026 0.256911 85.026 0.313972V3.30969H84.9975Z" fill="white"/>
<path d="M88.3953 3.3099C88.3953 3.33843 88.3953 3.33843 88.3953 3.36696C88.3953 3.39549 88.3667 3.39549 88.3382 3.39549C88.3096 3.39549 88.2811 3.42402 88.2525 3.42402C88.224 3.42402 88.1669 3.42402 88.1098 3.42402C88.0527 3.42402 87.9956 3.42402 87.967 3.42402C87.9385 3.42402 87.9099 3.42402 87.8814 3.39549C87.8528 3.39549 87.8528 3.36696 87.8243 3.36696C87.7957 3.36696 87.8243 3.33843 87.8243 3.3099V1.99749H87.4816C87.3389 1.99749 87.2247 1.99749 87.139 2.02602C87.0534 2.05455 86.9963 2.08308 86.9106 2.14014C86.8535 2.1972 86.7964 2.25426 86.7393 2.33986C86.6822 2.42545 86.6537 2.53957 86.5966 2.65369L86.3396 3.25284C86.3396 3.28137 86.3111 3.3099 86.3111 3.33843C86.3111 3.36696 86.2825 3.36696 86.254 3.39549C86.2254 3.39549 86.1969 3.42402 86.1398 3.42402C86.1112 3.42402 86.0541 3.42402 85.997 3.42402C85.9399 3.42402 85.9113 3.42402 85.8828 3.42402C85.8542 3.42402 85.8257 3.42402 85.7971 3.42402C85.7686 3.42402 85.7686 3.39549 85.74 3.39549C85.74 3.39549 85.7115 3.36696 85.7115 3.33843C85.7115 3.3099 85.7115 3.3099 85.74 3.25284C85.74 3.22431 85.7686 3.16724 85.8257 3.05312L86.0826 2.45398C86.1397 2.31133 86.2254 2.16867 86.3111 2.08308C86.3967 1.96896 86.5109 1.88337 86.6251 1.85484C86.3967 1.82631 86.2254 1.71218 86.0826 1.59806C85.9399 1.45541 85.8828 1.28422 85.8828 1.05598C85.8828 0.913325 85.9113 0.770672 85.9684 0.65655C86.0255 0.542427 86.1112 0.428305 86.254 0.342713C86.3682 0.257121 86.5395 0.20006 86.7108 0.142998C86.8821 0.0859372 87.0819 0.0859375 87.3103 0.0859375C87.3674 0.0859375 87.4245 0.0859375 87.5102 0.0859375C87.5958 0.0859375 87.653 0.0859375 87.7386 0.0859375C87.8243 0.0859375 87.8814 0.0859371 87.967 0.114468C88.0527 0.114468 88.1098 0.114468 88.1669 0.142998C88.224 0.142998 88.2811 0.171529 88.3096 0.228591C88.3382 0.285652 88.3667 0.314182 88.3667 0.399774V3.3099H88.3953ZM87.8243 0.513897C87.7386 0.513897 87.6529 0.485366 87.5673 0.485366C87.4816 0.485366 87.396 0.485366 87.3103 0.485366C87.139 0.485366 87.0248 0.485366 86.9106 0.513897C86.7964 0.542427 86.7108 0.570958 86.6537 0.628019C86.5966 0.68508 86.5395 0.742142 86.5109 0.799203C86.4824 0.856264 86.4824 0.941856 86.4824 1.02745C86.4824 1.11304 86.5109 1.19863 86.5395 1.25569C86.568 1.31275 86.6251 1.36982 86.6822 1.42688C86.7393 1.48394 86.825 1.51247 86.9392 1.541C87.0534 1.56953 87.1676 1.56953 87.3674 1.56953H87.8528V0.513897H87.8243Z" fill="white"/>
<path d="M93.3346 2.85341C93.3346 2.88194 93.3346 2.939 93.3346 2.96753C93.3346 2.99606 93.3346 3.02459 93.3346 3.05312C93.3346 3.08165 93.3346 3.08165 93.3061 3.11018C93.3061 3.13871 93.2775 3.13871 93.249 3.16724C93.2204 3.19577 93.1633 3.22431 93.1062 3.28137C93.0491 3.33843 92.9634 3.36696 92.8778 3.39549C92.7921 3.42402 92.7065 3.45255 92.5923 3.48108C92.4781 3.50961 92.3924 3.50961 92.2782 3.50961C92.0498 3.50961 91.85 3.48108 91.6787 3.39549C91.5073 3.3099 91.3646 3.22431 91.2504 3.08165C91.1362 2.939 91.0505 2.76782 90.9934 2.5681C90.9363 2.36839 90.9078 2.11161 90.9078 1.85484C90.9078 1.541 90.9363 1.28422 91.022 1.05598C91.1076 0.827733 91.1933 0.65655 91.336 0.513897C91.4788 0.371244 91.6216 0.257121 91.7929 0.20006C91.9642 0.142999 92.164 0.0859375 92.3639 0.0859375C92.4495 0.0859375 92.5637 0.0859371 92.6494 0.114468C92.735 0.142998 92.8207 0.171529 92.9063 0.20006C92.992 0.22859 93.0491 0.257121 93.1062 0.314182C93.1633 0.342713 93.2204 0.399774 93.249 0.428305C93.2775 0.456835 93.3061 0.485366 93.3061 0.485366C93.3061 0.513897 93.3346 0.513896 93.3346 0.542427C93.3346 0.570958 93.3346 0.599489 93.3346 0.628019C93.3346 0.65655 93.3346 0.68508 93.3346 0.742142C93.3346 0.827733 93.3346 0.884795 93.3061 0.941856C93.2775 0.970387 93.249 0.998917 93.2204 0.998917C93.1919 0.998917 93.1348 0.970387 93.1062 0.941856C93.0491 0.913325 92.992 0.856264 92.9349 0.827733C92.8778 0.770672 92.7921 0.742141 92.6779 0.713611C92.5923 0.68508 92.4495 0.65655 92.3353 0.65655C92.0498 0.65655 91.85 0.770672 91.7072 0.970386C91.5645 1.1701 91.4788 1.48394 91.4788 1.88337C91.4788 2.08308 91.5073 2.25426 91.5359 2.42545C91.5645 2.5681 91.6216 2.71075 91.7072 2.79635C91.7929 2.91047 91.8785 2.96753 91.9927 3.02459C92.1069 3.08165 92.2211 3.11018 92.3639 3.11018C92.5066 3.11018 92.6208 3.08165 92.7065 3.05312C92.7921 3.02459 92.9063 2.96753 92.9634 2.91047C93.0491 2.85341 93.1062 2.82488 93.1348 2.76781C93.1919 2.73928 93.2204 2.71075 93.249 2.71075C93.2775 2.71075 93.2775 2.71075 93.2775 2.71075C93.2775 2.71075 93.3061 2.73928 93.3061 2.76781C93.3061 2.79635 93.3061 2.82488 93.3346 2.85341C93.3061 2.76782 93.3346 2.79635 93.3346 2.85341Z" fill="white"/>
<path d="M96.2755 0.341947C96.2755 0.399008 96.2755 0.427539 96.2755 0.456069C96.2755 0.4846 96.2755 0.51313 96.247 0.541661C96.247 0.570191 96.2184 0.570192 96.2184 0.598722C96.2184 0.598722 96.1899 0.627253 96.1613 0.627253H95.2191V3.33766C95.2191 3.36619 95.2191 3.36619 95.2191 3.39472C95.2191 3.39472 95.1906 3.42325 95.162 3.42325C95.1335 3.42325 95.1049 3.45178 95.0764 3.45178C95.0478 3.45178 94.9907 3.45178 94.9336 3.45178C94.8765 3.45178 94.8194 3.45178 94.7909 3.45178C94.7623 3.45178 94.7338 3.45178 94.7052 3.42325C94.6767 3.39472 94.6767 3.39472 94.6481 3.39472C94.6481 3.39472 94.6481 3.36619 94.6481 3.33766V0.627253H93.7059C93.6774 0.627253 93.6774 0.627253 93.6488 0.598722C93.6203 0.598722 93.6203 0.570191 93.6203 0.541661C93.6203 0.51313 93.5917 0.4846 93.5917 0.456069C93.5917 0.427539 93.5917 0.370477 93.5917 0.341947C93.5917 0.313416 93.5917 0.256355 93.5917 0.227824C93.5917 0.199294 93.5917 0.170763 93.6203 0.142232C93.6203 0.113702 93.6488 0.113702 93.6488 0.0851714C93.6488 0.0851714 93.6774 0.0566406 93.7059 0.0566406H96.1613C96.1899 0.0566406 96.1899 0.0566407 96.2184 0.0851714C96.247 0.0851714 96.247 0.113702 96.247 0.142232C96.247 0.170763 96.2755 0.199294 96.2755 0.227824C96.2755 0.284886 96.2755 0.313416 96.2755 0.341947Z" fill="white"/>
<path d="M98.2736 3.39528L97.8453 4.5365C97.8453 4.56503 97.7882 4.59356 97.7311 4.6221C97.674 4.65063 97.5884 4.65063 97.4742 4.65063C97.4171 4.65063 97.36 4.65063 97.3314 4.65063C97.3029 4.65063 97.2743 4.6221 97.2458 4.6221C97.2172 4.6221 97.2172 4.59357 97.2172 4.56503C97.2172 4.5365 97.2172 4.50797 97.2458 4.47944L97.674 3.39528C97.6455 3.39528 97.6455 3.36675 97.6169 3.33822C97.5884 3.30969 97.5884 3.28116 97.5884 3.28116L96.4749 0.313972C96.4463 0.256911 96.4464 0.228381 96.4464 0.19985C96.4464 0.171319 96.4463 0.142789 96.4749 0.142789C96.5034 0.114258 96.532 0.114258 96.5606 0.114258C96.5891 0.114258 96.6462 0.114258 96.7319 0.114258C96.8175 0.114258 96.8461 0.114258 96.9032 0.114258C96.9317 0.114258 96.9603 0.114258 96.9888 0.142789C97.0174 0.142789 97.0174 0.171319 97.0459 0.171319C97.0459 0.19985 97.0745 0.19985 97.0745 0.256911L97.9595 2.76761L98.8161 0.228381C98.8161 0.171319 98.8446 0.142789 98.8732 0.142789C98.9017 0.142789 98.9303 0.114258 98.9588 0.114258C98.9874 0.114258 99.0445 0.114258 99.1301 0.114258C99.1872 0.114258 99.2443 0.114258 99.3014 0.114258C99.33 0.114258 99.3871 0.142789 99.3871 0.142789C99.4156 0.171319 99.4156 0.171319 99.4156 0.19985C99.4156 0.228381 99.4156 0.256911 99.3871 0.313972L98.2736 3.39528Z" fill="white"/>
<path d="M99.8445 4.45112C99.8445 4.47965 99.8445 4.47965 99.8445 4.47965L99.8159 4.50818C99.8159 4.50818 99.7588 4.50818 99.7302 4.53671C99.7017 4.53671 99.6731 4.53671 99.616 4.53671C99.5589 4.53671 99.5304 4.53671 99.5018 4.53671C99.4733 4.53671 99.4447 4.53671 99.4162 4.50818C99.3876 4.47965 99.3876 4.47965 99.3876 4.47965V4.45112V3.05312C99.3876 2.99606 99.3876 2.96753 99.4162 2.939C99.4447 2.91047 99.4733 2.91047 99.5304 2.91047H99.7588C99.8444 2.79635 99.9301 2.68222 99.9872 2.53957C100.073 2.39692 100.13 2.22573 100.187 2.02602C100.244 1.82631 100.301 1.56953 100.358 1.28422C100.415 0.998917 100.473 0.656549 100.501 0.257121C100.501 0.22859 100.501 0.20006 100.53 0.171529C100.53 0.142999 100.558 0.114468 100.558 0.114468C100.587 0.0859371 100.587 0.0859375 100.615 0.0859375C100.644 0.0859375 100.672 0.0859375 100.701 0.0859375H102.443C102.5 0.0859375 102.528 0.114468 102.585 0.142998C102.614 0.171529 102.642 0.22859 102.642 0.285652V2.91047H103.071C103.128 2.91047 103.156 2.91047 103.185 2.939C103.213 2.96753 103.213 2.99606 103.213 3.05312V4.45112C103.213 4.47965 103.213 4.47965 103.213 4.47965L103.185 4.50818C103.156 4.50818 103.128 4.50818 103.099 4.53671C103.071 4.53671 103.042 4.53671 102.985 4.53671C102.928 4.53671 102.899 4.53671 102.871 4.53671C102.842 4.53671 102.814 4.53671 102.785 4.50818C102.757 4.50818 102.757 4.47965 102.757 4.47965V4.45112V3.39549H99.9301V4.45112H99.8445ZM102.014 0.570958H101.015C100.958 0.941856 100.929 1.25569 100.872 1.541C100.815 1.79777 100.758 2.02602 100.701 2.1972C100.644 2.36839 100.587 2.51104 100.501 2.62516C100.444 2.73928 100.358 2.82488 100.301 2.91047H102.014V0.570958Z" fill="white"/>
<path d="M106.411 1.62582C106.411 1.71142 106.382 1.76848 106.354 1.82554C106.297 1.85407 106.268 1.8826 106.211 1.8826H104.155C104.155 2.05378 104.184 2.22497 104.212 2.33909C104.241 2.48174 104.298 2.59587 104.384 2.70999C104.469 2.82411 104.584 2.88117 104.698 2.93823C104.841 2.99529 104.983 3.02383 105.183 3.02383C105.326 3.02383 105.469 3.02383 105.583 2.99529C105.697 2.96676 105.811 2.93823 105.897 2.9097C105.983 2.88117 106.04 2.85264 106.097 2.82411C106.154 2.79558 106.182 2.79558 106.211 2.79558C106.24 2.79558 106.24 2.79558 106.268 2.79558L106.297 2.82411C106.297 2.85264 106.297 2.85264 106.325 2.88117C106.325 2.9097 106.325 2.93823 106.325 2.99529C106.325 3.02383 106.325 3.05236 106.325 3.08089C106.325 3.10942 106.325 3.10942 106.325 3.13795C106.325 3.16648 106.325 3.16648 106.297 3.19501C106.268 3.22354 106.268 3.22354 106.268 3.22354C106.268 3.22354 106.211 3.25207 106.154 3.2806C106.097 3.30913 106.011 3.33766 105.897 3.36619C105.783 3.39472 105.668 3.42325 105.554 3.45178C105.412 3.48032 105.269 3.48031 105.126 3.48031C104.869 3.48031 104.641 3.45178 104.441 3.36619C104.241 3.2806 104.07 3.19501 103.955 3.05236C103.813 2.9097 103.727 2.73852 103.67 2.51027C103.613 2.31056 103.556 2.05378 103.556 1.76848C103.556 1.5117 103.584 1.25493 103.67 1.05521C103.727 0.826967 103.841 0.655784 103.984 0.513131C104.127 0.370478 104.269 0.256355 104.469 0.170763C104.669 0.0851711 104.869 0.0566406 105.097 0.0566406C105.354 0.0566406 105.554 0.0851711 105.726 0.170763C105.897 0.256355 106.04 0.341947 106.154 0.4846C106.268 0.627253 106.354 0.769906 106.411 0.94109C106.468 1.11227 106.496 1.31199 106.496 1.5117V1.62582H106.411ZM105.811 1.45464C105.811 1.1408 105.754 0.912559 105.611 0.741375C105.469 0.570192 105.269 0.4846 104.983 0.4846C104.841 0.4846 104.726 0.51313 104.612 0.570192C104.498 0.627253 104.412 0.684314 104.355 0.769906C104.269 0.855498 104.212 0.969621 104.184 1.08374C104.155 1.19787 104.127 1.31199 104.127 1.45464H105.811V1.45464Z" fill="white"/>
<path d="M110.037 3.30913C110.037 3.33766 110.037 3.33766 110.037 3.36619C110.037 3.36619 110.009 3.39472 109.98 3.39472C109.952 3.39472 109.923 3.42325 109.895 3.42325C109.866 3.42325 109.809 3.42325 109.752 3.42325C109.695 3.42325 109.638 3.42325 109.609 3.42325C109.581 3.42325 109.552 3.42325 109.523 3.39472C109.495 3.36619 109.495 3.36619 109.466 3.36619C109.466 3.36619 109.466 3.33766 109.466 3.30913V1.93966H107.867V3.30913C107.867 3.33766 107.867 3.33766 107.867 3.36619C107.867 3.36619 107.839 3.39472 107.81 3.39472C107.782 3.39472 107.753 3.42325 107.725 3.42325C107.696 3.42325 107.639 3.42325 107.582 3.42325C107.525 3.42325 107.468 3.42325 107.439 3.42325C107.411 3.42325 107.382 3.42325 107.354 3.39472C107.325 3.39472 107.325 3.36619 107.296 3.36619C107.296 3.36619 107.296 3.33766 107.296 3.30913V0.170763C107.296 0.142232 107.296 0.142232 107.296 0.113702C107.296 0.113702 107.325 0.0851714 107.354 0.0851714C107.382 0.0851714 107.411 0.0566406 107.439 0.0566406C107.468 0.0566406 107.525 0.0566406 107.582 0.0566406C107.639 0.0566406 107.696 0.0566406 107.725 0.0566406C107.753 0.0566406 107.782 0.0566407 107.81 0.0851714C107.839 0.0851714 107.839 0.113702 107.867 0.113702C107.867 0.113702 107.867 0.142232 107.867 0.170763V1.45464H109.466V0.170763C109.466 0.142232 109.466 0.142232 109.466 0.113702C109.466 0.113702 109.495 0.0851714 109.523 0.0851714C109.552 0.0851714 109.581 0.0566406 109.609 0.0566406C109.638 0.0566406 109.695 0.0566406 109.752 0.0566406C109.809 0.0566406 109.866 0.0566406 109.895 0.0566406C109.923 0.0566406 109.952 0.0566407 109.98 0.0851714C110.009 0.0851714 110.009 0.113702 110.037 0.113702C110.037 0.113702 110.037 0.142232 110.037 0.170763V3.30913Z" fill="white"/>
<path d="M113.292 0.341947C113.292 0.399008 113.292 0.427539 113.292 0.456069C113.292 0.4846 113.292 0.51313 113.264 0.541661C113.264 0.570191 113.235 0.570192 113.235 0.598722C113.235 0.598722 113.206 0.627253 113.178 0.627253H112.236V3.33766C112.236 3.36619 112.236 3.36619 112.236 3.39472C112.236 3.39472 112.207 3.42325 112.179 3.42325C112.15 3.42325 112.121 3.45178 112.093 3.45178C112.064 3.45178 112.007 3.45178 111.95 3.45178C111.893 3.45178 111.836 3.45178 111.807 3.45178C111.779 3.45178 111.75 3.45178 111.722 3.42325C111.693 3.39472 111.693 3.39472 111.665 3.39472C111.665 3.39472 111.665 3.36619 111.665 3.33766V0.627253H110.722C110.694 0.627253 110.694 0.627253 110.665 0.598722C110.637 0.598722 110.637 0.570191 110.637 0.541661C110.637 0.51313 110.608 0.4846 110.608 0.456069C110.608 0.427539 110.608 0.370477 110.608 0.341947C110.608 0.313416 110.608 0.256355 110.608 0.227824C110.608 0.199294 110.608 0.170763 110.637 0.142232C110.637 0.113702 110.665 0.113702 110.665 0.0851714C110.665 0.0851714 110.694 0.0566406 110.722 0.0566406H113.178C113.206 0.0566406 113.206 0.0566407 113.235 0.0851714C113.264 0.0851714 113.264 0.113702 113.264 0.142232C113.264 0.170763 113.292 0.199294 113.292 0.227824C113.292 0.284886 113.292 0.313416 113.292 0.341947Z" fill="white"/>
<path d="M116.689 1.71184C116.689 1.96861 116.66 2.19686 116.575 2.4251C116.518 2.65335 116.403 2.82453 116.261 2.96718C116.118 3.10984 115.947 3.25249 115.747 3.33808C115.547 3.42367 115.318 3.48073 115.062 3.48073C114.805 3.48073 114.576 3.4522 114.376 3.36661C114.176 3.28102 114.034 3.1669 113.891 3.02425C113.777 2.88159 113.663 2.71041 113.605 2.48216C113.548 2.28245 113.52 2.02567 113.52 1.7689C113.52 1.51212 113.548 1.28388 113.605 1.05563C113.663 0.827388 113.777 0.656204 113.891 0.513551C114.034 0.370898 114.205 0.228245 114.405 0.142653C114.605 0.0570612 114.833 0 115.119 0C115.376 0 115.604 0.0285305 115.804 0.114122C116.004 0.199714 116.146 0.313837 116.289 0.45649C116.432 0.599143 116.518 0.770327 116.575 0.998572C116.632 1.22682 116.689 1.45506 116.689 1.71184ZM116.089 1.7689C116.089 1.59771 116.061 1.42653 116.032 1.28388C116.004 1.14122 115.947 0.998572 115.889 0.884449C115.804 0.770327 115.718 0.684735 115.604 0.627674C115.49 0.570613 115.318 0.542082 115.147 0.542082C114.976 0.542082 114.833 0.570613 114.719 0.627674C114.605 0.684735 114.491 0.770327 114.405 0.884449C114.319 0.998572 114.262 1.11269 114.234 1.28388C114.205 1.42653 114.176 1.59771 114.176 1.7689C114.176 1.94008 114.205 2.11127 114.234 2.25392C114.262 2.39657 114.319 2.53923 114.405 2.65335C114.491 2.76747 114.576 2.85306 114.69 2.91012C114.805 2.96718 114.976 2.99572 115.147 2.99572C115.318 2.99572 115.461 2.96718 115.575 2.91012C115.69 2.85306 115.804 2.76747 115.889 2.65335C115.975 2.53923 116.032 2.4251 116.061 2.25392C116.061 2.11127 116.089 1.94008 116.089 1.7689Z" fill="white"/>
<path d="M120.115 2.42489C120.115 2.59608 120.087 2.73873 120.03 2.85285C119.972 2.99551 119.887 3.0811 119.744 3.16669C119.63 3.25228 119.459 3.30934 119.287 3.3664C119.116 3.42346 118.887 3.42346 118.659 3.42346C118.573 3.42346 118.516 3.42346 118.431 3.42346C118.345 3.42346 118.288 3.42346 118.231 3.42346C118.174 3.42346 118.088 3.42346 118.031 3.42346C117.974 3.42346 117.888 3.42346 117.831 3.39493C117.745 3.39493 117.66 3.3664 117.631 3.30934C117.574 3.25228 117.574 3.19522 117.574 3.0811V0.370688C117.574 0.285096 117.603 0.199504 117.631 0.142443C117.688 0.0853814 117.745 0.056851 117.831 0.056851C117.888 0.056851 117.945 0.0568509 118.031 0.0283203C118.088 0.0283203 118.174 0.0283203 118.231 0.0283203C118.316 0.0283203 118.374 0.0283203 118.459 0.0283203C118.545 0.0283203 118.602 0.0283203 118.688 0.0283203C118.916 0.0283203 119.116 0.0568511 119.287 0.0853818C119.459 0.113912 119.601 0.170973 119.687 0.256565C119.801 0.342157 119.887 0.427749 119.915 0.513341C119.972 0.627464 120.001 0.741586 120.001 0.884239C120.001 1.05542 119.944 1.19808 119.858 1.34073C119.773 1.45485 119.63 1.56897 119.43 1.5975C119.658 1.65457 119.83 1.74016 119.944 1.88281C120.058 2.02546 120.115 2.19665 120.115 2.42489ZM119.43 0.969831C119.43 0.884239 119.43 0.827178 119.401 0.770117C119.373 0.713055 119.316 0.655994 119.259 0.627463C119.202 0.598933 119.116 0.541871 119.002 0.541871C118.887 0.513341 118.773 0.513341 118.631 0.513341C118.516 0.513341 118.431 0.513341 118.345 0.513341C118.259 0.513341 118.174 0.513341 118.117 0.541871V1.51191H118.716C118.945 1.51191 119.144 1.45485 119.259 1.36926C119.344 1.25514 119.43 1.14101 119.43 0.969831ZM119.516 2.42489C119.516 2.3393 119.487 2.25371 119.459 2.16812C119.43 2.11106 119.373 2.02546 119.316 1.99693C119.259 1.93987 119.144 1.91134 119.03 1.88281C118.916 1.85428 118.802 1.85428 118.631 1.85428H118.06V2.96697C118.117 2.96697 118.145 2.96697 118.202 2.99551C118.259 2.99551 118.288 2.99551 118.345 2.99551C118.402 2.99551 118.431 2.99551 118.488 2.99551C118.545 2.99551 118.573 2.99551 118.631 2.99551C118.773 2.99551 118.916 2.9955 119.03 2.96697C119.144 2.93844 119.23 2.90991 119.287 2.85285C119.344 2.79579 119.401 2.73873 119.43 2.65314C119.516 2.59608 119.516 2.51048 119.516 2.42489Z" fill="white"/>
<path fill-rule="evenodd" clip-rule="evenodd" d="M26.7539 25.1352C26.1829 25.021 25.7832 24.7643 25.4977 23.9939C27.3535 23.138 29.1522 21.6259 29.609 19.5717C29.038 19.429 28.3528 19.4576 28.0673 18.9155C26.6683 16.4904 26.1829 13.2094 25.098 10.499C24.5841 10.4134 23.7561 10.6701 23.5277 10.2992C23.3849 11.0125 23.3564 11.8399 23.0423 12.3534C22.6711 12.2108 22.2143 12.1252 21.7861 12.0681C21.7861 11.5831 21.7861 11.0981 21.7861 10.6131C21.0152 10.6131 20.2158 10.6131 19.4449 10.6131C19.502 13.6088 19.0452 16.9183 19.5305 19.4861C15.2765 20.4847 17.6176 13.6658 17.275 10.6131C16.5327 10.6131 15.7904 10.6131 15.0195 10.6131C14.9053 11.2122 14.8482 11.8684 14.6198 12.382C14.2486 12.2108 13.649 12.2678 13.335 11.9825C13.3635 11.2407 13.2493 10.3278 13.4206 9.72862C15.7904 8.24503 20.8439 8.41622 23.3849 9.64303C24.1272 8.98683 25.2978 8.53034 26.497 8.64446C27.3535 9.50038 27.7818 11.5261 28.3242 13.1523C28.7525 14.8071 29.3235 16.4048 29.8945 17.9454C30.1515 16.8327 30.5797 14.693 31.0366 12.6102C31.4648 10.6131 31.8645 8.90124 32.6069 8.67299C33.3777 8.73005 33.806 8.92977 34.063 9.44332C32.2071 14.75 32.2643 21.9683 28.0102 24.8784C27.5819 25.1066 27.1536 25.2207 26.7539 25.1352Z" fill="white"/>
<path fill-rule="evenodd" clip-rule="evenodd" d="M44.8553 17.6032C45.4263 17.6317 46.4256 17.6888 46.8253 17.86C46.9395 19.4292 46.3399 21.8543 46.1115 22.7102C45.512 22.5961 45.1408 22.6531 44.7411 22.4249C44.7411 21.3122 44.7411 20.2851 44.7411 19.2009C42.6283 19.743 39.1451 19.6574 37.0038 19.315C37.0038 20.228 36.8325 21.5119 36.4328 22.7672C35.9474 22.6246 35.4335 22.6246 34.9481 22.4534C34.9481 20.8842 34.9481 19.315 34.9481 17.7744C37.8603 17.3179 37.6605 13.5233 38.0887 10.6132C37.689 10.5847 37.1465 10.6132 36.6897 10.5847C36.5184 10.3279 36.6041 9.81433 36.4042 9.61462C38.2029 8.58751 42.4856 8.21662 44.0273 9.70021C44.9409 11.3835 44.5698 14.9498 44.8553 17.6032ZM39.9445 10.4991C39.659 13.0098 39.6876 16.0055 38.4884 17.6032C39.8874 17.6032 41.2864 17.6032 42.6854 17.6032C42.5712 15.3778 42.714 12.9242 42.3999 10.6988C41.629 10.5847 40.8582 10.4705 39.9445 10.4991Z" fill="white"/>
<path fill-rule="evenodd" clip-rule="evenodd" d="M8.48137 2.88184C4.37004 2.88184 -0.426515 6.04874 0.0302993 12.0972C0.487114 17.946 5.59773 20.0287 9.10949 19.4867C11.8218 19.0587 12.8497 17.461 12.8497 17.461C12.8497 17.461 12.5927 16.8333 12.3643 16.4624C9.2808 18.2598 3.71337 17.9175 2.71409 12.5252C1.74335 7.36114 5.68338 4.10865 10.5085 5.05016C10.5085 5.84902 10.5085 6.70494 10.5085 6.70494L11.9646 6.99025C11.9646 6.99025 12.2786 5.70637 12.4499 4.36543C11.8218 3.68069 10.6512 2.88184 8.48137 2.88184Z" fill="white"/>
<path fill-rule="evenodd" clip-rule="evenodd" d="M56.4756 16.947C54.9053 17.803 50.7369 18.5733 50.1088 14.6931C49.4521 10.6132 53.4778 9.95704 55.2765 10.6988C55.2765 11.355 55.2765 12.1539 55.2765 12.1539C55.2765 12.1539 56.1616 12.2966 56.7611 12.2395C56.8753 11.5262 57.1894 10.2709 57.1323 9.7288C53.7633 7.36076 47.4821 9.04406 47.9104 14.8073C48.3386 20.5704 55.0195 20.4563 57.1323 17.9456C56.8468 17.4891 56.6184 17.1468 56.4756 16.947Z" fill="white"/>
<path fill-rule="evenodd" clip-rule="evenodd" d="M60.7008 15.5769C61.4431 15.5484 64.6694 15.2916 66.5252 14.2645C68.638 13.0947 68.2097 10.4984 67.1533 9.69959C64.0127 7.1889 57.8457 9.30016 58.1883 14.7495C58.5309 20.4556 65.2975 20.3986 67.4103 17.8879C67.1248 17.4599 66.8964 17.1175 66.7251 16.9178C65.2975 17.6882 61.7001 18.5441 60.7008 15.5769ZM64.8978 10.8693C65.7543 11.2688 65.8114 11.8109 65.84 11.982C65.8685 12.1532 65.7258 12.5812 65.3546 12.838C64.4695 13.4656 62.8136 13.9221 60.4724 14.0362C60.4438 11.0405 63.5559 10.2417 64.8978 10.8693Z" fill="white"/>
<path fill-rule="evenodd" clip-rule="evenodd" d="M90.1938 13.4376C90.7933 13.7514 91.2787 14.1223 91.6213 14.6358C91.9925 15.1494 92.3922 16.148 91.6213 17.5745C90.879 18.7443 89.6227 19.4005 87.9097 19.5716C86.2823 19.6858 84.6263 19.7714 83.5985 19.1152C82.5992 17.4889 83.3415 13.3234 83.2844 10.7272C82.6563 10.7272 82.1139 10.7272 81.6856 10.7272C81.6856 10.4989 81.5999 10.0139 81.5143 9.75711C84.8547 8.50176 92.4207 7.4176 91.3073 12.2107C91.1645 12.6387 90.8504 13.1523 90.1938 13.4376ZM85.3687 13.2378C86.2537 13.0381 87.5956 13.0381 88.5949 13.1523C90.308 10.9554 87.9668 10.0139 85.4543 10.6986C85.3972 11.6116 85.3972 12.2963 85.3687 13.2378ZM85.3116 14.5788C85.283 15.5488 85.2545 16.4333 85.2259 17.3463C87.0532 17.6316 90.0796 17.6316 89.6513 15.6915C89.1945 14.3505 87.0246 14.4076 85.3116 14.5788Z" fill="white"/>
<path fill-rule="evenodd" clip-rule="evenodd" d="M97.1608 9.35801C97.1893 11.5834 96.9894 14.1226 96.9323 16.4907C97.3606 15.7203 98.5026 13.6947 99.6161 11.8687C100.53 10.3566 101.443 8.93005 102.129 8.64474C102.585 8.55915 103.413 8.81593 103.756 9.04417C104.07 10.0998 103.413 14.95 103.556 17.746C103.956 17.746 104.613 17.746 105.212 17.746C105.212 18.1169 105.355 18.4593 105.412 18.8302C104.356 19.3437 102.785 20.0855 101.529 19.3723C101.301 17.0898 101.672 14.1226 101.729 11.669C100.13 14.3223 98.7882 17.261 96.8467 19.572C96.0473 19.8002 95.2764 19.5434 94.9052 19.0869C94.5341 16.4907 95.048 13.5235 94.9909 10.6989C94.3913 10.6989 93.8203 10.6989 93.2207 10.6989C93.1922 10.4707 93.1065 10.0142 93.0209 9.72891C93.7632 9.35801 94.9909 8.64474 96.0758 8.61621C96.447 8.61621 97.1608 8.73033 97.1608 9.35801Z" fill="white"/>
<path d="M113.949 22.4819C109.495 22.4819 105.897 18.8585 105.897 14.4363C105.897 9.98548 109.523 6.39062 113.949 6.39062C118.403 6.39062 122 10.014 122 14.4363C122 18.8585 118.374 22.4819 113.949 22.4819ZM113.949 7.0183C109.866 7.0183 106.525 10.3564 106.525 14.4363C106.525 18.5161 109.837 21.8542 113.949 21.8542C118.031 21.8542 121.372 18.5447 121.372 14.4363C121.343 10.3279 118.031 7.0183 113.949 7.0183Z" fill="white"/>
<path fill-rule="evenodd" clip-rule="evenodd" d="M74.8903 8.75906C74.0909 8.93025 73.4913 9.24408 73.0345 9.7291C72.4921 7.61784 69.637 9.12996 68.7233 9.7291C68.809 9.98588 68.8946 10.2997 68.9232 10.6991C69.5228 10.6991 70.3507 10.6991 70.6648 10.6991C70.6648 11.0415 70.208 23.7662 70.208 23.7662L70.1794 24.3653C70.1509 24.7077 70.522 25.3639 71.5499 25.1356C72.5777 24.9359 74.2908 24.2512 74.3764 24.1656C74.2337 23.7091 74.1766 23.0814 74.1766 23.0814C74.1766 23.0814 73.2344 23.0814 72.4349 23.0814L72.5777 18.9445C73.6626 19.6863 75.7754 19.6863 77.1744 19.2013C81.5141 17.6891 81.3999 7.41812 74.8903 8.75906ZM76.2608 17.2327C75.3186 17.6606 73.9481 17.6891 72.6634 17.4038C72.6634 17.3468 72.6348 17.2897 72.6348 17.2612L72.8347 11.0986C74.2051 10.4138 76.4321 10.4424 77.1458 11.6977C78.1737 13.1813 77.9167 16.4909 76.2608 17.2327Z" fill="white"/>
<path fill-rule="evenodd" clip-rule="evenodd" d="M117.289 16.947C115.719 17.803 111.55 18.5733 110.922 14.6931C110.265 10.6132 114.291 9.95704 116.118 10.6988C116.118 11.355 116.118 12.1539 116.118 12.1539C116.118 12.1539 117.003 12.2966 117.603 12.2395C117.717 11.5262 118.031 10.2709 117.974 9.7288C114.605 7.36076 108.324 9.04406 108.752 14.8073C109.18 20.5704 115.861 20.4563 117.974 17.9456C117.689 17.4891 117.46 17.1468 117.289 16.947Z" fill="white"/>
</svg>
