<svg width="50" height="26" viewBox="0 0 50 26" fill="none" xmlns="http://www.w3.org/2000/svg">
<path d="M26.6508 2.78955H15.2625V23.2885H26.6508V2.78955Z" fill="#F26122"/>
<path d="M16.0217 12.9848C16.0217 8.97177 17.8655 5.17566 21.0108 2.78954C15.3709 -1.65733 7.12794 -0.681184 2.78954 4.95874C-1.65733 10.5987 -0.681184 18.8416 4.95874 23.18C9.73099 26.8677 16.3471 26.8677 21.0108 23.18C17.757 20.7939 16.0217 16.9978 16.0217 12.9848Z" fill="#EA1D25"/>
<path d="M42.0521 12.9848C42.0521 20.1432 36.1953 26 29.0369 26C26.1085 26 23.2885 25.0239 21.0109 23.18C26.6508 18.7332 27.6269 10.5987 23.1801 4.95874C22.5293 4.09106 21.7701 3.4403 21.0109 2.78954C26.6508 -1.65733 34.8938 -0.681184 39.2322 4.95874C41.076 7.2364 42.0521 10.0564 42.0521 12.9848Z" fill="#F69E1F"/>
<path d="M48.7506 21.0109V20.5771H48.9675H48.5337H48.7506V21.0109ZM49.6183 21.0109V20.5771H49.5098L49.4014 20.9025L49.1845 20.5771H49.076V21.1194H49.1845V20.794L49.2929 21.1194H49.4014L49.5098 20.794L49.6183 21.0109Z" fill="#F69E1F"/>
</svg>
