<svg width="18" height="16" viewBox="0 0 18 16" xmlns="http://www.w3.org/2000/svg">
<path d="M11.057 2.80699H15.5362C16.8592 2.80699 17.8967 3.94389 17.7769 5.26248L17.061 13.1432C16.9557 14.303 15.984 15.191 14.8202 15.191H3.17972C2.01601 15.191 1.04431 14.303 0.938955 13.1432L0.223047 5.26248C0.173484 4.7169 0.322044 4.20242 0.606982 3.78671L0.562482 2.80699C0.562482 1.56345 1.56984 0.555359 2.81248 0.555359H6.943C7.53974 0.555359 8.11204 0.792584 8.53399 1.21485L9.46597 2.1475C9.88793 2.56977 10.4602 2.80699 11.057 2.80699ZM1.69476 2.94169C1.93416 2.85462 2.193 2.80699 2.46381 2.80699H8.53399L7.7385 2.01092C7.52752 1.79979 7.24137 1.68118 6.943 1.68118H2.81248C2.19826 1.68118 1.699 2.17378 1.68768 2.78574L1.69476 2.94169Z" />
</svg>
