<svg width="28" height="28" viewBox="0 0 28 28" fill="none" xmlns="http://www.w3.org/2000/svg">
<path fill-rule="evenodd" clip-rule="evenodd" d="M14 0C6.3 0 0 6.3 0 14C0 20.9 5 26.6 11.5 27.8V15.5C11.5 14.9 12 14.5 12.5 14.5H14.4C14.5 14.5 14.5 14.5 14.5 14.4V0C14.3 0 14.2 0 14 0ZM11.3 12C10.4 12 9.6 11.3 9.6 10.3C9.6 9.4 10.3 8.7 11.3 8.7C12.2 8.7 13 9.4 13 10.3C13 11.3 12.2 12 11.3 12Z" fill="#019860"/>
<path fill-rule="evenodd" clip-rule="evenodd" d="M16.2 0.200195V15.0002C16.2 15.6002 15.7 16.0002 15.2 16.0002H13.3C13.2 16.0002 13.2 16.0002 13.2 16.1002V28.0002C13.5 28.0002 13.8 28.0002 14 28.0002C21.7 28.0002 28 21.7002 28 14.0002C28 7.0002 22.9 1.2002 16.2 0.200195ZM16.1 21.2002C15.3 21.2002 14.6 20.5002 14.6 19.7002C14.6 18.9002 15.3 18.2002 16.1 18.2002C16.9 18.2002 17.6 18.9002 17.6 19.7002C17.6 20.5002 16.9 21.2002 16.1 21.2002ZM20 21.2002C19.2 21.2002 18.5 20.5002 18.5 19.7002C18.5 18.9002 19.2 18.2002 20 18.2002C20.8 18.2002 21.5 18.9002 21.5 19.7002C21.5 20.5002 20.8 21.2002 20 21.2002ZM23.9 21.2002C23.1 21.2002 22.4 20.5002 22.4 19.7002C22.4 18.9002 23.1 18.2002 23.9 18.2002C24.7 18.2002 25.4 18.9002 25.4 19.7002C25.4 20.5002 24.7 21.2002 23.9 21.2002Z" fill="#019860"/>
</svg>
