<svg width="28" height="28" viewBox="0 0 28 28" fill="none" xmlns="http://www.w3.org/2000/svg">
<mask id="mask0_60_542" style="mask-type:alpha" maskUnits="userSpaceOnUse" x="0" y="0" width="28" height="28">
<circle cx="14" cy="14" r="14" fill="#D9D9D9"/>
</mask>
<g mask="url(#mask0_60_542)">
<path d="M28 25.2C28 26.7 26.7 28 25.2 28H2.8C1.3 28 0 26.7 0 25.2V2.8C0 1.3 1.3 0 2.8 0H25.2C26.7 0 28 1.3 28 2.8V25.2ZM14 24.4C19.2 24.4 21.6 20.2 21.6 16.1C21.6 10.3 17.6 3.7 14 3.7C10.5 3.7 6.4 10.3 6.4 16.1C6.4 20.2 8.8 24.4 14 24.4Z" fill="#E30611"/>
</g>
</svg>
