<svg width="18" height="19" viewBox="0 0 18 19" xmlns="http://www.w3.org/2000/svg">
<path d="M0 2.16468V15.1116C0 15.7333 0.50368 16.2374 1.125 16.2374V2.16468C1.125 1.85379 1.37684 1.60177 1.6875 1.60177H15.75C15.75 0.979997 15.2463 0.475952 14.625 0.475952H1.6875C0.75552 0.475952 0 1.23202 0 2.16468Z"/>
<path d="M3.9375 2.72759C3.00552 2.72759 2.25 3.48365 2.25 4.41631V16.8003C2.25 17.733 3.00552 18.489 3.9375 18.489H10.784C11.2316 18.489 11.6608 18.3111 11.9773 17.9944L17.5057 12.4619C17.8222 12.1452 18 11.7157 18 11.2678V4.41631C18 3.48365 17.2445 2.72759 16.3125 2.72759H3.9375ZM10.6875 12.297C10.6875 11.6753 11.1912 11.1712 11.8125 11.1712H16.7585C17.0091 11.1712 17.1346 11.4744 16.9574 11.6517L11.1676 17.4456C10.9904 17.6229 10.6875 17.4974 10.6875 17.2466V12.297Z"/>
</svg>
