<svg width="7" height="11" viewBox="0 0 7 11" fill="none" xmlns="http://www.w3.org/2000/svg">
<mask id="path-1-inside-1_1_56506" fill="white">
<path d="M2.00011 0.0722656L7.00011 5.07227L2.00011 10.0723L0.939453 9.01161L4.87879 5.07227L0.939453 1.13293L2.00011 0.0722656Z"/>
</mask>
<path d="M2.00011 0.0722656L7.00011 5.07227L2.00011 10.0723L0.939453 9.01161L4.87879 5.07227L0.939453 1.13293L2.00011 0.0722656Z" fill="white"/>
<path d="M7.00011 5.07227L8.06077 6.13293L9.12143 5.07227L8.06077 4.01161L7.00011 5.07227ZM2.00011 0.0722656L3.06077 -0.988395L2.00011 -2.04905L0.939453 -0.988395L2.00011 0.0722656ZM2.00011 10.0723L0.939453 11.1329L2.00011 12.1936L3.06077 11.1329L2.00011 10.0723ZM0.939453 1.13293L-0.121207 0.0722655L-1.18187 1.13293L-0.121207 2.19359L0.939453 1.13293ZM0.939453 9.01161L-0.121207 7.95095L-1.18187 9.01161L-0.121207 10.0723L0.939453 9.01161ZM4.87879 5.07227L5.93945 6.13293L7.00011 5.07227L5.93945 4.01161L4.87879 5.07227ZM8.06077 4.01161L3.06077 -0.988395L0.939453 1.13293L5.93945 6.13293L8.06077 4.01161ZM3.06077 11.1329L8.06077 6.13293L5.93945 4.01161L0.939453 9.01161L3.06077 11.1329ZM0.939453 -0.988395L-0.121207 0.0722655L2.00011 2.19359L3.06077 1.13293L0.939453 -0.988395ZM-0.121207 10.0723L0.939453 11.1329L3.06077 9.01161L2.00011 7.95095L-0.121207 10.0723ZM3.81813 4.01161L-0.121207 7.95095L2.00011 10.0723L5.93945 6.13293L3.81813 4.01161ZM-0.121207 2.19359L3.81813 6.13293L5.93945 4.01161L2.00011 0.0722656L-0.121207 2.19359Z" fill="#CED4DA" mask="url(#path-1-inside-1_1_56506)"/>
</svg>
