<svg width="68" height="21" viewBox="0 0 68 21" fill="none" xmlns="http://www.w3.org/2000/svg">
<path d="M30.6713 1.01599V20.0144C30.6729 20.0838 30.6603 20.1529 30.6345 20.2175C30.6086 20.282 30.5699 20.3406 30.5208 20.3897C30.4716 20.4389 30.413 20.4775 30.3485 20.5034C30.284 20.5293 30.2149 20.5418 30.1454 20.5402H26.2697C26.2002 20.5418 26.1311 20.5293 26.0666 20.5034C26.0021 20.4775 25.9435 20.4389 25.8944 20.3897C25.8452 20.3406 25.8065 20.282 25.7807 20.2175C25.7548 20.1529 25.7423 20.0838 25.7438 20.0144V1.01599C25.7423 0.946495 25.7548 0.877407 25.7807 0.812894C25.8065 0.74838 25.8452 0.689778 25.8944 0.640629C25.9435 0.591479 26.0021 0.552799 26.0666 0.526927C26.1311 0.501054 26.2002 0.488525 26.2697 0.490095H30.1454C30.2149 0.488525 30.284 0.501054 30.3485 0.526927C30.413 0.552799 30.4716 0.591479 30.5208 0.640629C30.5699 0.689778 30.6086 0.74838 30.6345 0.812894C30.6603 0.877407 30.6729 0.946495 30.6713 1.01599ZM60.9175 0.490095C61.0687 0.490095 61.257 0.56478 61.4434 0.715476C61.5575 0.827725 61.5575 1.01599 61.5199 1.16712L55.1239 20.2026C55.0851 20.3011 55.0179 20.3858 54.9309 20.4462C54.8439 20.5065 54.741 20.5397 54.6351 20.5416H51.1744C50.9486 20.5416 50.7603 20.428 50.6857 20.2026L46.9589 9.10499L43.2348 20.2017C43.1959 20.3001 43.1287 20.3848 43.0417 20.445C42.9547 20.5053 42.8518 20.5384 42.746 20.5402H39.2853C39.0599 20.5402 38.8712 20.428 38.7965 20.2013L32.4001 1.1658C32.3625 1.01599 32.3625 0.865289 32.4752 0.715476C32.5508 0.56478 32.7391 0.490095 32.8889 0.490095H37.2153C37.4407 0.490095 37.629 0.639466 37.705 0.86529L41.1277 12.1136L44.8903 0.86529C44.9291 0.766813 44.9963 0.682058 45.0833 0.621729C45.1702 0.561401 45.2732 0.528204 45.379 0.526332H48.4261C48.6515 0.526332 48.8397 0.639466 48.9149 0.86529L52.6774 12.1136L56.101 0.86529C56.1317 0.758681 56.1957 0.664692 56.2836 0.597095C56.3716 0.529498 56.4789 0.491846 56.5898 0.489653L60.9175 0.490095ZM67.4633 0.490095C67.7263 0.490095 67.9521 0.715477 67.9893 1.01599V20.0144C67.9908 20.0838 67.9783 20.1529 67.9524 20.2175C67.9265 20.282 67.8879 20.3406 67.8387 20.3897C67.7896 20.4389 67.731 20.4775 67.6665 20.5034C67.6019 20.5293 67.5328 20.5418 67.4633 20.5402H63.5881C63.5186 20.5418 63.4495 20.5293 63.385 20.5034C63.3205 20.4775 63.2619 20.4389 63.2128 20.3897C63.1636 20.3406 63.1249 20.282 63.099 20.2175C63.0732 20.1529 63.0607 20.0838 63.0622 20.0144V1.01599C63.0607 0.946495 63.0732 0.877407 63.099 0.812894C63.1249 0.74838 63.1636 0.689778 63.2128 0.640629C63.2619 0.591479 63.3205 0.552799 63.385 0.526927C63.4495 0.501054 63.5186 0.488525 63.5881 0.490095H67.4633ZM23.486 19.8645C23.7114 20.1275 23.5236 20.5031 23.1846 20.5031H18.4441C18.3508 20.5056 18.2581 20.4866 18.1733 20.4474C18.0885 20.4082 18.0139 20.35 17.9553 20.2773L17.1661 19.2998C15.5106 20.352 13.5533 20.9928 11.4847 20.9928C5.69235 20.9928 0.98938 16.2903 0.98938 10.4966C0.98938 4.70297 5.69235 0 11.4851 0C17.2787 0 21.9813 4.70297 21.9813 10.4966C21.9813 12.5661 21.3789 14.5226 20.3258 16.1767L23.486 19.8645ZM14.081 15.6508L12.0114 13.1296C11.7869 12.8667 11.9752 12.4526 12.3133 12.4526H16.6769C16.9022 11.8507 17.0158 11.1736 17.0158 10.4966C17.0158 7.37441 14.6833 4.66541 11.4851 4.66541C8.28866 4.66541 5.95486 7.37441 5.95486 10.4966C5.95486 13.6184 8.28822 16.2903 11.4851 16.2903C12.388 16.3274 13.2917 16.0653 14.081 15.6508Z" fill="#FF8C00"/>
</svg>
