<svg width="18" height="19" viewBox="0 0 18 19" xmlns="http://www.w3.org/2000/svg">
<path d="M1.125 16.1475C1.125 16.1475 0 16.1475 0 15.0217C0 13.8959 1.125 10.5184 6.75 10.5184C12.375 10.5184 13.5 13.8959 13.5 15.0217C13.5 16.1475 12.375 16.1475 12.375 16.1475H1.125Z" />
<path d="M6.75 9.39259C8.61396 9.39259 10.125 7.88046 10.125 6.01515C10.125 4.14983 8.61396 2.6377 6.75 2.6377C4.88604 2.6377 3.375 4.14983 3.375 6.01515C3.375 7.88046 4.88604 9.39259 6.75 9.39259Z" />
<path fill-rule="evenodd" clip-rule="evenodd" d="M15.1875 6.01514C15.4982 6.01514 15.75 6.26716 15.75 6.57805V8.26677H17.4375C17.7482 8.26677 18 8.51879 18 8.82968C18 9.14056 17.7482 9.39259 17.4375 9.39259H15.75V11.0813C15.75 11.3922 15.4982 11.6442 15.1875 11.6442C14.8768 11.6442 14.625 11.3922 14.625 11.0813V9.39259H12.9375C12.6268 9.39259 12.375 9.14056 12.375 8.82968C12.375 8.51879 12.6268 8.26677 12.9375 8.26677H14.625V6.57805C14.625 6.26716 14.8768 6.01514 15.1875 6.01514Z" />
</svg>
