<svg width="16" height="17" viewBox="0 0 16 17" fill="none" xmlns="http://www.w3.org/2000/svg">
<path d="M11.742 10.8441C12.7103 9.52279 13.144 7.88459 12.9563 6.25725C12.7686 4.62991 11.9734 3.13344 10.7298 2.06723C9.48613 1.00102 7.88576 0.443704 6.24885 0.506777C4.61194 0.56985 3.0592 1.24866 1.90128 2.40741C0.743364 3.56615 0.0656633 5.11938 0.00376152 6.75633C-0.0581403 8.39329 0.500322 9.99326 1.56742 11.2361C2.63452 12.479 4.13156 13.2732 5.75903 13.4597C7.38651 13.6462 9.02439 13.2113 10.345 12.2421H10.344C10.374 12.2821 10.406 12.3201 10.442 12.3571L14.292 16.2071C14.4795 16.3947 14.7339 16.5002 14.9992 16.5003C15.2644 16.5004 15.5189 16.3951 15.7065 16.2076C15.8942 16.0201 15.9996 15.7657 15.9997 15.5005C15.9998 15.2352 15.8945 14.9807 15.707 14.7931L11.857 10.9431C11.8213 10.9069 11.7828 10.8735 11.742 10.8431V10.8441ZM12 7.0001C12 7.72237 11.8578 8.43757 11.5814 9.10486C11.3049 9.77215 10.8998 10.3785 10.3891 10.8892C9.87838 11.3999 9.27206 11.805 8.60477 12.0814C7.93748 12.3578 7.22228 12.5001 6.50001 12.5001C5.77774 12.5001 5.06254 12.3578 4.39525 12.0814C3.72796 11.805 3.12165 11.3999 2.61093 10.8892C2.1002 10.3785 1.69508 9.77215 1.41868 9.10486C1.14227 8.43757 1.00001 7.72237 1.00001 7.0001C1.00001 5.54141 1.57948 4.14246 2.61093 3.11101C3.64238 2.07956 5.04132 1.5001 6.50001 1.5001C7.9587 1.5001 9.35765 2.07956 10.3891 3.11101C11.4206 4.14246 12 5.54141 12 7.0001Z" fill="white"/>
</svg>
