<svg width="21" height="24" viewBox="0 0 21 24" fill="none" xmlns="http://www.w3.org/2000/svg">
<path d="M10.4929 24C10.0787 24 9.74294 23.6642 9.74294 23.25V21.3107L8.77327 22.2803C8.48038 22.5732 8.0055 22.5732 7.71261 22.2803C7.41972 21.9874 7.41972 21.5126 7.71261 21.2197L9.74294 19.1893L9.74294 13.299L4.64177 16.2442L3.89862 19.0177C3.79141 19.4178 3.38016 19.6552 2.98006 19.548C2.57996 19.4408 2.34252 19.0295 2.44973 18.6294L2.80465 17.3048L1.12514 18.2745C0.766418 18.4816 0.307724 18.3587 0.100616 18C-0.106489 17.6413 0.0164165 17.1826 0.375137 16.9755L2.05465 16.0058L0.730059 15.6509C0.32996 15.5437 0.0925236 15.1324 0.19973 14.7323C0.306938 14.3322 0.718187 14.0948 1.11829 14.202L3.89177 14.9451L8.99294 12L3.89181 9.05484L1.11832 9.798C0.718225 9.9052 0.306973 9.66777 0.199766 9.26767C0.0925598 8.86757 0.329998 8.45631 0.730097 8.34911L2.05469 7.99418L0.375172 7.02451C0.0164528 6.81741 -0.106453 6.35871 0.100655 5.99999C0.30776 5.64128 0.766453 5.51837 1.12517 5.72548L2.80469 6.69514L2.44977 5.37055C2.34256 4.97045 2.58 4.5592 2.9801 4.45199C3.3802 4.34479 3.79145 4.58222 3.89865 4.98232L4.64181 7.75581L9.74294 10.7009V4.81066L7.71261 2.78033C7.41972 2.48744 7.41972 2.01256 7.71261 1.71967C8.0055 1.42678 8.48038 1.42678 8.77327 1.71967L9.74294 2.68934L9.74294 0.75C9.74294 0.335787 10.0787 0 10.4929 0C10.9072 0 11.2429 0.335787 11.2429 0.75L11.2429 2.68934L12.2126 1.71967C12.5055 1.42678 12.9804 1.42678 13.2733 1.71967C13.5662 2.01256 13.5662 2.48744 13.2733 2.78033L11.2429 4.81066V10.7009L16.3441 7.75581L17.0872 4.98232C17.1944 4.58222 17.6057 4.34479 18.0058 4.45199C18.4059 4.5592 18.6433 4.97045 18.5361 5.37055L18.1812 6.69514L19.8607 5.72548C20.2194 5.51837 20.6781 5.64128 20.8852 5.99999C21.0923 6.35871 20.9694 6.81741 20.6107 7.02451L18.9312 7.99418L20.2558 8.34911C20.6559 8.45631 20.8933 8.86757 20.7861 9.26767C20.6789 9.66777 20.2677 9.9052 19.8676 9.798L17.0941 9.05484L11.9929 12L17.0941 14.9451L19.8676 14.202C20.2677 14.0948 20.6789 14.3322 20.7862 14.7323C20.8934 15.1324 20.6559 15.5437 20.2558 15.6509L18.9312 16.0058L20.6107 16.9755C20.9695 17.1826 21.0924 17.6413 20.8853 18C20.6782 18.3587 20.2195 18.4816 19.8607 18.2745L18.1812 17.3048L18.5362 18.6294C18.6434 19.0295 18.4059 19.4408 18.0058 19.548C17.6057 19.6552 17.1945 19.4178 17.0873 19.0177L16.3441 16.2442L11.2429 13.299L11.2429 19.1893L13.2733 21.2197C13.5662 21.5126 13.5662 21.9874 13.2733 22.2803C12.9804 22.5732 12.5055 22.5732 12.2126 22.2803L11.2429 21.3107V23.25C11.2429 23.6642 10.9072 24 10.4929 24Z" fill="#3B4B64"/>
</svg>
