<svg width="18" height="17" viewBox="0 0 18 17" fill="none" xmlns="http://www.w3.org/2000/svg">
<path d="M12.375 1.58096C12.375 0.959184 12.8787 0.455139 13.5 0.455139H15.75C16.3713 0.455139 16.875 0.959185 16.875 1.58096V15.0908H17.4375C17.7482 15.0908 18 15.3428 18 15.6537C18 15.9645 17.7482 16.2166 17.4375 16.2166H0.5625C0.25184 16.2166 0 15.9645 0 15.6537C0 15.3428 0.25184 15.0908 0.5625 15.0908H1.125V11.7133C1.125 11.0915 1.62868 10.5875 2.25 10.5875H4.5C5.12132 10.5875 5.625 11.0915 5.625 11.7133V15.0908H6.75V7.21004C6.75 6.58827 7.25368 6.08422 7.875 6.08422H10.125C10.7463 6.08422 11.25 6.58827 11.25 7.21004V15.0908H12.375V1.58096Z" fill="#9DA5B1"/>
</svg>
