<svg width="13" height="13" viewBox="0 0 13 13" fill="none" xmlns="http://www.w3.org/2000/svg">
<path d="M1.625 0C0.727537 0 0 0.727537 0 1.625V11.375C0 12.2725 0.727537 13 1.625 13H11.375C12.2725 13 13 12.2725 13 11.375V1.625C13 0.727537 12.2725 0 11.375 0H1.625ZM9.77464 4.03786C10.0097 4.27291 10.0126 4.65223 9.78329 4.89082L6.53962 8.9454C6.53494 8.95126 6.52994 8.95684 6.52464 8.96214C6.28666 9.20012 5.90083 9.20012 5.66285 8.96214L3.51261 6.81191C3.27464 6.57393 3.27464 6.18809 3.51261 5.95012C3.75059 5.71214 4.13642 5.71214 4.3744 5.95012L6.07538 7.6511L8.89669 4.05608C8.90171 4.04969 8.9071 4.0436 8.91285 4.03786C9.15083 3.79988 9.53666 3.79988 9.77464 4.03786Z" fill="#2EB85C"/>
</svg>
