<svg width="15" height="15" viewBox="0 0 15 15"  xmlns="http://www.w3.org/2000/svg">
<path d="M0 1.40625C0 0.629599 0.6296 0 1.40625 0H13.5938C14.3704 0 15 0.6296 15 1.40625V13.5938C15 14.3704 14.3704 15 13.5938 15H1.40625C0.629599 15 0 14.3704 0 13.5938V1.40625ZM1.40625 0.9375C1.14737 0.9375 0.9375 1.14737 0.9375 1.40625V13.5938C0.9375 13.8526 1.14737 14.0625 1.40625 14.0625H4.6875V0.9375H1.40625ZM9.375 14.0625V0.9375H5.625V14.0625H9.375ZM10.3125 14.0625H13.5938C13.8526 14.0625 14.0625 13.8526 14.0625 13.5938V1.40625C14.0625 1.14737 13.8526 0.9375 13.5938 0.9375H10.3125V14.0625Z" />
</svg>
