<svg width="24" height="25" viewBox="0 0 24 25" fill="none" xmlns="http://www.w3.org/2000/svg">
<path d="M24 12.1826C24 18.81 18.6274 24.1826 12 24.1826C5.37258 24.1826 0 18.81 0 12.1826C0 5.5552 5.37258 0.182617 12 0.182617C18.6274 0.182617 24 5.5552 24 12.1826ZM12.4301 9.0416C11.2629 9.52707 8.9302 10.5319 5.43195 12.056C4.86389 12.2819 4.56632 12.5029 4.53923 12.719C4.49345 13.0842 4.95077 13.228 5.57354 13.4238C5.65825 13.4504 5.74602 13.478 5.836 13.5073C6.4487 13.7064 7.27289 13.9394 7.70135 13.9487C8.09 13.9571 8.52379 13.7969 9.0027 13.468C12.2712 11.2617 13.9584 10.1465 14.0644 10.1224C14.1391 10.1055 14.2427 10.0842 14.3128 10.1465C14.383 10.2089 14.3761 10.327 14.3687 10.3587C14.3234 10.5518 12.5282 12.2208 11.5992 13.0844C11.3096 13.3537 11.1041 13.5447 11.0621 13.5883C10.9681 13.686 10.8722 13.7784 10.78 13.8673C10.2108 14.416 9.78397 14.8275 10.8037 15.4994C11.2937 15.8224 11.6858 16.0894 12.077 16.3558C12.5042 16.6467 12.9303 16.9369 13.4817 17.2983C13.6221 17.3904 13.7563 17.486 13.8869 17.5792C14.3841 17.9336 14.8308 18.2521 15.3826 18.2013C15.7033 18.1718 16.0345 17.8703 16.2027 16.971C16.6003 14.8458 17.3817 10.2411 17.5623 8.34365C17.5781 8.17741 17.5582 7.96465 17.5422 7.87125C17.5262 7.77785 17.4928 7.64479 17.3714 7.54628C17.2277 7.42961 17.0057 7.40501 16.9064 7.40676C16.4551 7.41471 15.7626 7.65549 12.4301 9.0416Z" fill="white"/>
</svg>
