<svg width="68" height="22" viewBox="0 0 68 22" fill='#231F5C' xmlns="http://www.w3.org/2000/svg">
    <path d="M26.1064 0.572512L17.3211 21.5053H11.5728L7.23435 4.80246C7.01743 3.71786 6.80051 3.39247 5.93283 2.95863C4.63131 2.19941 2.46211 1.54865 0.618286 1.11481L0.726746 0.464052H9.94586C11.1389 0.464052 12.2235 1.22327 12.4404 2.63325L14.7181 14.7808L20.358 0.464052H26.1064V0.572512ZM48.5577 14.6723C48.5577 9.14086 40.857 8.81548 40.9655 6.3209C40.9655 5.56168 41.7247 4.80246 43.2431 4.58554C44.1108 4.47708 46.1715 4.36862 48.6661 5.56168L49.6423 1.11481C48.3407 0.572512 46.6054 0.138672 44.5446 0.138672C39.2301 0.138672 35.434 2.95863 35.3255 7.08012C35.3255 10.117 38.037 11.7439 40.0978 12.8285C42.1585 13.8046 42.9177 14.5639 42.9177 15.4315C42.9177 16.8415 41.1824 17.4923 39.6639 17.4923C36.9524 17.4923 35.3255 16.7331 34.1325 16.1908L33.1563 20.7461C34.4578 21.2884 36.7355 21.8307 39.2301 21.8307C44.87 21.8307 48.5577 19.0107 48.5577 14.6723ZM62.7659 21.5053H67.7551L63.4167 0.572512H58.7529C57.6683 0.572512 56.8006 1.22327 56.4752 2.09095L48.3407 21.5053H54.0891L55.1737 18.36H62.1152L62.7659 21.5053ZM56.6922 14.0216L59.5121 6.10398L61.139 14.0216H56.6922ZM33.9155 0.572512L29.4687 21.5053H24.0457L28.4925 0.572512H33.9155V0.572512Z"  />
    <defs>
        <linearGradient id="paint0_linear_331_61851" x1="0.618286" y1="10.9847" x2="67.7856" y2="10.9847" gradientUnits="userSpaceOnUse">
            <stop stop-color="#231F5C" />
            <stop offset="1" stop-color="#034EA2" />
        </linearGradient>
    </defs>
</svg>