<svg width="24" height="23" viewBox="0 0 24 23" fill="none" xmlns="http://www.w3.org/2000/svg">
<path d="M18.2043 0.0682877C19.6244 -0.286732 21 0.787323 21 2.25111V4.07994H21.75C22.9926 4.07994 24 5.0873 24 6.32994V19.8299C24 21.0726 22.9926 22.0799 21.75 22.0799H2.25C1.00736 22.0799 0 21.0726 0 19.8299V6.32994C0 5.12124 0.95308 4.13515 2.14872 4.08218L18.2043 0.0682877ZM8.34233 4.07994H19.5V2.25111C19.5 1.76318 19.0415 1.40516 18.5681 1.5235L8.34233 4.07994ZM2.25 5.57994C1.83579 5.57994 1.5 5.91573 1.5 6.32994V19.8299C1.5 20.2442 1.83579 20.5799 2.25 20.5799H21.75C22.1642 20.5799 22.5 20.2442 22.5 19.8299V6.32994C22.5 5.91573 22.1642 5.57994 21.75 5.57994H2.25Z" fill="#3B4B64"/>
</svg>
