<svg width="14" height="13" viewBox="0 0 14 13" fill="none" xmlns="http://www.w3.org/2000/svg">
<path d="M7.69844 0.985504C7.31797 0.338165 6.39896 0.338165 6.0185 0.985504L0.141108 10.9855C-0.250635 11.652 0.219667 12.5 0.981078 12.5H12.7359C13.4973 12.5 13.9676 11.652 13.5758 10.9855L7.69844 0.985504ZM6.85714 3.92857C7.31607 3.92857 7.67466 4.32482 7.629 4.78146L7.32836 7.78784C7.30415 8.02993 7.10044 8.21429 6.85714 8.21429C6.61385 8.21429 6.41014 8.02993 6.38593 7.78784L6.08529 4.78146C6.03962 4.32482 6.39822 3.92857 6.85714 3.92857ZM6.85846 9.07143C7.33185 9.07143 7.71561 9.45518 7.71561 9.92857C7.71561 10.402 7.33185 10.7857 6.85846 10.7857C6.38508 10.7857 6.00132 10.402 6.00132 9.92857C6.00132 9.45518 6.38508 9.07143 6.85846 9.07143Z" fill="#E45353"/>
</svg>
