<svg width="118" height="28" viewBox="0 0 118 28" fill="none" xmlns="http://www.w3.org/2000/svg">
<path d="M13.677 0C15.8213 0 17.8614 0.491268 19.6921 1.37006C19.9793 1.49959 20.2682 1.65462 20.5544 1.80978L19.2991 2.92171L17.4173 0.982674L14.1746 3.82628L12.2651 1.78361L6.30233 7.08369L10.1199 11.2461L8.62955 12.5384L12.396 16.7008L10.9055 17.9926L16.2931 23.9131L19.4818 21.0174L22.2552 24.1206C21.7055 24.5343 21.1041 24.9487 20.451 25.3101C18.4631 26.4216 16.1614 27.0667 13.7034 27.0667C6.14485 27.0667 8.66197e-05 20.9925 8.66197e-05 13.5217C-0.0266059 6.10142 6.11925 0 13.677 0ZM11.166 12.6938L14.4351 9.79816L17.3648 13.0297L14.095 15.9251L11.166 12.6938ZM13.4942 18.2782L16.7367 15.3569L19.6921 18.5882L16.4229 21.484L13.4942 18.2782ZM8.83989 7.18745L12.108 4.29177L15.037 7.52328L11.7678 10.4188L8.83989 7.18745ZM14.8275 5.63578L17.2598 3.46426L19.4571 5.86868L17.0248 8.06585L14.8275 5.63578ZM19.1692 15.5891L21.6007 13.4175L23.7979 15.847L21.3654 18.02L19.1692 15.5891ZM21.3133 20.4758L23.7458 18.3037L25.9412 20.708L23.5097 22.9049L21.3133 20.4758ZM22.3073 9.3069L23.9285 7.85899L25.3925 9.46246L23.7716 10.9098L22.3073 9.3069ZM20.2151 4.52412L21.8364 3.05083L23.3015 4.67928L21.679 6.12705L20.2151 4.52412ZM24.373 14.0901L25.9942 12.6423L27.4848 14.2452L25.8379 15.6926L24.373 14.0901ZM17.0769 10.4964L19.5093 8.32476L21.7055 10.7286L19.2742 12.9007L17.0769 10.4964Z" fill="#036CB5"/>
<path d="M34.7695 5.62366V18.1198H49.0635V5.62366H34.7695Z" fill="white"/>
<path d="M41.943 9.32389H41.8196L39.5038 18.1198H37.6109L34.7695 5.62366H36.7335L38.6979 14.9479H38.8206L41.1001 5.62366H42.6615L45.0994 14.9479H45.2222L47.0114 5.62366H49.0635L46.2214 18.1198H44.3271L41.943 9.32389Z" fill="#036CB5"/>
<path d="M51.5552 12.7999H55.5707C55.4836 10.9499 54.5886 10.2103 53.6419 10.2103C52.5721 10.2103 51.7473 11.0385 51.5552 12.7999ZM56.9736 16.1144V17.4541C56.1845 17.9122 55.1328 18.265 53.8693 18.265C50.9237 18.265 49.7136 16.432 49.7136 13.6476C49.7136 10.9675 51.0638 9.02869 53.6945 9.02869C55.8862 9.02869 57.2375 10.4573 57.2375 13.3294V13.9817H51.5201C51.5201 16.096 52.3789 17.0304 54.186 17.0304C55.1328 17.0304 56.0097 16.6949 56.9736 16.1144Z" fill="#036CB5"/>
<path d="M61.3167 16.8517C61.8781 17.0984 62.4923 17.135 62.9315 17.135C64.229 17.135 65.2101 16.323 65.2101 13.4685C65.2101 11.2302 64.4035 10.5075 63.2289 10.5075C62.5268 10.5075 62.0185 10.702 61.3167 11.089V16.8517H61.3167ZM61.3352 9.78509C61.86 9.50402 62.7543 9.13261 63.7017 9.13261C65.8767 9.13261 67.0519 10.6483 67.0519 13.4685C67.0519 16.7646 65.4732 18.3685 62.9316 18.3685C62.0013 18.3685 60.5632 18.0688 59.5104 17.5035V5.20257L61.3352 4.76257V9.78509H61.3352Z" fill="#036CB5"/>
<path d="M74.9455 15.4682H75.0333L78.7857 5.61584H80.9616V18.1129H79.0675V9.05299H78.9094L75.3311 18.1129H74.2097L70.6306 9.2648H70.4733V18.1129H68.8948V5.61584H71.0175L74.9455 15.4682Z" fill="#036CB5"/>
<path d="M88.7 13.647C88.7 11.2679 87.7361 10.2637 86.5436 10.2637C85.3865 10.2637 84.3859 11.2679 84.3859 13.647C84.3859 16.0619 85.299 17.0304 86.5436 17.0304C87.7881 17.0304 88.7 16.0619 88.7 13.647ZM82.5452 13.647C82.5452 10.5616 84.2292 9.02869 86.5436 9.02869C88.8593 9.02869 90.5425 10.5616 90.5425 13.647C90.5425 16.6603 88.9466 18.265 86.5436 18.265C84.141 18.265 82.5452 16.6603 82.5452 13.647Z" fill="#036CB5"/>
<path d="M91.9297 10.3339C92.7188 9.85727 94.3856 9.02869 96.402 9.02869C98.5064 9.02869 99.2942 9.85727 99.2942 11.6721V18.0533H97.4715V12.078C97.4715 10.686 96.7887 10.4393 95.8932 10.4393C95.1925 10.4393 94.2969 10.757 93.7537 11.0742V18.0533H91.9297V10.3339H91.9297Z" fill="#036CB5"/>
<path d="M103.155 12.7999H107.171C107.084 10.9499 106.189 10.2103 105.242 10.2103C104.172 10.2103 103.348 11.0385 103.155 12.7999ZM108.573 16.1144V17.4541C107.785 17.9122 106.732 18.265 105.469 18.265C102.525 18.265 101.314 16.432 101.314 13.6476C101.314 10.9675 102.663 9.02869 105.294 9.02869C107.487 9.02869 108.838 10.4573 108.838 13.3294V13.9817H103.12C103.12 16.096 103.98 17.0304 105.786 17.0304C106.732 17.0304 107.61 16.6949 108.573 16.1144Z" fill="#036CB5"/>
<path d="M116.123 9.02869H118L114.825 17.84C113.947 20.2725 112.879 21.5416 110.862 21.5416V20.0973C112.055 20.0973 112.791 19.1451 113.213 17.84L109.845 9.02869H111.775L114.019 15.5145H114.125L116.123 9.02869Z" fill="#036CB5"/>
</svg>
