<svg width="119" height="26" viewBox="0 0 119 26" fill="none" xmlns="http://www.w3.org/2000/svg">
<path d="M104.892 13.0801C104.892 9.67842 102.318 6.92676 98.6821 6.92676C95.1184 6.92676 92.5808 9.57269 92.5808 13.2084C92.5808 16.8622 95.1903 19.5264 98.9343 19.5264C101.31 19.5264 103.308 18.4638 104.549 16.3041L102.03 15.1341C101.436 16.214 100.14 16.916 98.9343 16.916C97.4047 16.916 95.641 15.7642 95.5327 14.1626H104.802C104.861 13.8047 104.891 13.4427 104.892 13.0801ZM95.5864 12.0401C95.8031 10.4203 96.9185 9.35862 98.7004 9.35862C100.464 9.35862 101.544 10.3986 101.688 12.0401H95.5864Z" fill="black"/>
<path d="M70.1966 6.92383C66.5427 6.92383 63.9514 9.55243 63.9514 13.26C63.9514 16.9312 66.5428 19.5234 70.233 19.5234C73.9406 19.5234 76.532 16.9312 76.532 13.3138C76.532 9.58796 73.8687 6.92383 70.1966 6.92383ZM70.233 16.7692C68.3966 16.7692 67.263 15.4016 67.263 13.2774C67.263 11.1176 68.4148 9.64169 70.233 9.64169C72.0686 9.64169 73.2204 11.0994 73.2204 13.2774C73.2204 15.4198 72.0868 16.7692 70.233 16.7692Z" fill="black"/>
<path d="M57.1862 6.92697C55.6895 6.92697 54.5619 7.4383 53.4344 8.70623H53.0643C52.3069 7.56137 51.071 6.92697 49.6843 6.92697C48.992 6.9202 48.308 7.07798 47.6885 7.38731C47.0691 7.69665 46.532 8.1487 46.1215 8.70623H45.7514L45.7332 8.6889V7.17397H42.6357V19.2588H45.9828V13.0396C45.9828 11.0315 46.8287 9.8511 48.2907 9.8511C49.6471 9.8511 50.5276 10.8556 50.5276 12.3878V19.2588H53.892V13.0396C53.892 11.0462 54.7379 9.8511 56.2181 9.8511C57.5563 9.8511 58.4195 10.8556 58.4195 12.406V19.2588H61.7847V12.0004C61.7847 8.8475 60.093 6.92697 57.1862 6.92697Z" fill="black"/>
<path d="M112.335 15.0681H112.096C112.096 14.8531 110.636 11.0259 109.679 8.65474L109.081 7.17188H105.709L110.493 19.2991L108.608 23.9202H111.957L118.846 7.17621H115.472L114.922 8.44414L113.056 13.0609C112.53 14.3505 112.314 14.9485 112.335 15.0681Z" fill="black"/>
<path d="M85.8148 6.92725C84.3172 6.92725 83.0311 7.57898 82.1679 8.74205H81.8151L81.7805 8.72471V7.17425H78.6813V19.259H82.0283V13.0754C82.0283 11.1028 82.9817 9.86871 84.5477 9.86871C86.0098 9.86871 87.0845 10.9607 87.0845 12.6871V19.2582H90.4315V11.966C90.4315 9.00638 88.4937 6.92725 85.8148 6.92725Z" fill="black"/>
<path d="M23.5915 0C16.3601 0 10.5491 5.85 10.5491 13C10.5491 20.2089 16.4173 26 23.5898 26C30.7623 26 36.6357 20.15 36.6357 13C36.6357 5.85 30.7641 0 23.5915 0ZM23.5915 17.8455C20.9239 17.8455 18.7313 15.6589 18.7313 13C18.7313 10.3411 20.9239 8.15447 23.5915 8.15447C26.2591 8.15447 28.4527 10.3411 28.4527 13C28.3929 15.6589 26.2591 17.8455 23.5915 17.8455Z" fill="#8B3FFD"/>
<path d="M10.5491 3.77686V22.6858H5.928L0 3.77686H10.5491Z" fill="#8B3FFD"/>
</svg>
